<svg width="51" height="51" viewBox="0 0 51 51" fill="none" xmlns="http://www.w3.org/2000/svg">
<path d="M25.5 6.95455C30.6773 6.95455 35.0625 8.75114 38.6557 12.3443C42.2489 15.9375 44.0455 20.3227 44.0455 25.5C44.0455 30.6773 42.2489 35.0625 38.6557 38.6557C35.0625 42.2489 30.6773 44.0455 25.5 44.0455C20.3227 44.0455 15.9375 42.2489 12.3443 38.6557C8.75114 35.0625 6.95455 30.6773 6.95455 25.5C6.95455 20.3227 8.75114 15.9375 12.3443 12.3443C15.9375 8.75114 20.3227 6.95455 25.5 6.95455ZM25.5 39.4091C29.3636 39.4091 32.6477 38.0568 35.3523 35.3523C38.0568 32.6477 39.4091 29.3636 39.4091 25.5C39.4091 21.6364 38.0568 18.3523 35.3523 15.6477C32.6477 12.9432 29.3636 11.5909 25.5 11.5909C21.6364 11.5909 18.3523 12.9432 15.6477 15.6477C12.9432 18.3523 11.5909 21.6364 11.5909 25.5C11.5909 29.3636 12.9432 32.6477 15.6477 35.3523C18.3523 38.0568 21.6364 39.4091 25.5 39.4091ZM25.5 33.6136C27.3545 33.6136 29.0159 33.0824 30.4841 32.0199C31.9523 30.9574 32.9955 29.5568 33.6136 27.8182H17.3864C18.0045 29.5568 19.0477 30.9574 20.5159 32.0199C21.9841 33.0824 23.6455 33.6136 25.5 33.6136ZM17.3864 20.8636C17.3864 21.5205 17.6085 22.071 18.0528 22.5153C18.4972 22.9597 19.0477 23.1818 19.7045 23.1818C20.3614 23.1818 20.9119 22.9597 21.3563 22.5153C21.8006 22.071 22.0227 21.5205 22.0227 20.8636C22.0227 20.2068 21.8006 19.6562 21.3563 19.2119C20.9119 18.7676 20.3614 18.5455 19.7045 18.5455C19.0477 18.5455 18.4972 18.7676 18.0528 19.2119C17.6085 19.6562 17.3864 20.2068 17.3864 20.8636ZM28.9773 20.8636C28.9773 21.5205 29.1994 22.071 29.6438 22.5153C30.0881 22.9597 30.6386 23.1818 31.2955 23.1818C31.9523 23.1818 32.5028 22.9597 32.9472 22.5153C33.3915 22.071 33.6136 21.5205 33.6136 20.8636C33.6136 20.2068 33.3915 19.6562 32.9472 19.2119C32.5028 18.7676 31.9523 18.5455 31.2955 18.5455C30.6386 18.5455 30.0881 18.7676 29.6438 19.2119C29.1994 19.6562 28.9773 20.2068 28.9773 20.8636ZM0 11.5909V6.95455C0 5.02273 0.676136 3.38068 2.02841 2.02841C3.38068 0.676136 5.02273 0 6.95455 0H11.5909V4.63636H6.95455C6.29773 4.63636 5.74716 4.85852 5.30284 5.30284C4.85852 5.74716 4.63636 6.29773 4.63636 6.95455V11.5909H0ZM6.95455 51C5.02273 51 3.38068 50.3239 2.02841 48.9716C0.676136 47.6193 0 45.9773 0 44.0455V39.4091H4.63636V44.0455C4.63636 44.7023 4.85852 45.2528 5.30284 45.6972C5.74716 46.1415 6.29773 46.3636 6.95455 46.3636H11.5909V51H6.95455ZM39.4091 51V46.3636H44.0455C44.7023 46.3636 45.2528 46.1415 45.6972 45.6972C46.1415 45.2528 46.3636 44.7023 46.3636 44.0455V39.4091H51V44.0455C51 45.9773 50.3239 47.6193 48.9716 48.9716C47.6193 50.3239 45.9773 51 44.0455 51H39.4091ZM46.3636 11.5909V6.95455C46.3636 6.29773 46.1415 5.74716 45.6972 5.30284C45.2528 4.85852 44.7023 4.63636 44.0455 4.63636H39.4091V0H44.0455C45.9773 0 47.6193 0.676136 48.9716 2.02841C50.3239 3.38068 51 5.02273 51 6.95455V11.5909H46.3636Z" fill="#FF7E36"/>
</svg>
