<svg width="45" height="45" viewBox="0 0 45 45" fill="none" xmlns="http://www.w3.org/2000/svg">
<path d="M9 20.25H12.375V15.75H9V20.25ZM14.625 24.75H18V11.25H14.625V24.75ZM20.8125 29.25H24.1875V6.75H20.8125V29.25ZM27 24.75H30.375V11.25H27V24.75ZM32.625 20.25H36V15.75H32.625V20.25ZM0 45V4.5C0 3.2625 0.440625 2.20312 1.32187 1.32187C2.20312 0.440625 3.2625 0 4.5 0H40.5C41.7375 0 42.7969 0.440625 43.6781 1.32187C44.5594 2.20312 45 3.2625 45 4.5V31.5C45 32.7375 44.5594 33.7969 43.6781 34.6781C42.7969 35.5594 41.7375 36 40.5 36H9L0 45ZM7.0875 31.5H40.5V4.5H4.5V34.0312L7.0875 31.5Z" fill="#FF7E36"/>
</svg>
