<svg width="37" height="47" viewBox="0 0 37 47" fill="none" xmlns="http://www.w3.org/2000/svg">
<path d="M16.0719 37.6L29.1375 24.3225L25.7844 20.915L16.0141 30.8438L11.1578 25.9088L7.8625 29.2575L16.0719 37.6ZM4.625 47C3.35313 47 2.26432 46.5398 1.35859 45.6194C0.452865 44.699 0 43.5925 0 42.3V4.7C0 3.4075 0.452865 2.30104 1.35859 1.38063C2.26432 0.460208 3.35313 0 4.625 0H23.125L37 14.1V42.3C37 43.5925 36.5471 44.699 35.6414 45.6194C34.7357 46.5398 33.6469 47 32.375 47H4.625ZM20.8125 16.45V4.7H4.625V42.3H32.375V16.45H20.8125Z" fill="#FF7E36"/>
</svg>
