<svg width="46" height="47" viewBox="0 0 46 47" fill="none" xmlns="http://www.w3.org/2000/svg">
<path d="M29.4118 44.4738L19.4118 34.4863L22.7059 31.1963L29.4118 37.8938L42.7059 24.6163L46 27.9063L29.4118 44.4738ZM42.3529 21.15H37.6471V9.4H32.9412V16.45H9.41177V9.4H4.70588V42.3H18.8235V47H4.70588C3.41176 47 2.30392 46.5398 1.38235 45.6194C0.460784 44.699 0 43.5925 0 42.3V9.4C0 8.1075 0.460784 7.00104 1.38235 6.08063C2.30392 5.16021 3.41176 4.7 4.70588 4.7H14.5294C14.9608 3.32917 15.8039 2.20312 17.0588 1.32188C18.3137 0.440625 19.6863 0 21.1765 0C22.7451 0 24.1471 0.440625 25.3824 1.32188C26.6176 2.20312 27.451 3.32917 27.8824 4.7H37.6471C38.9412 4.7 40.049 5.16021 40.9706 6.08063C41.8922 7.00104 42.3529 8.1075 42.3529 9.4V21.15ZM21.1765 9.4C21.8431 9.4 22.402 9.17479 22.8529 8.72438C23.3039 8.27396 23.5294 7.71583 23.5294 7.05C23.5294 6.38417 23.3039 5.82604 22.8529 5.37563C22.402 4.92521 21.8431 4.7 21.1765 4.7C20.5098 4.7 19.951 4.92521 19.5 5.37563C19.049 5.82604 18.8235 6.38417 18.8235 7.05C18.8235 7.71583 19.049 8.27396 19.5 8.72438C19.951 9.17479 20.5098 9.4 21.1765 9.4Z" fill="#FF7E36"/>
</svg>
