<svg width="42" height="30" viewBox="0 0 42 30" fill="none" xmlns="http://www.w3.org/2000/svg">
<path d="M10.5 30C7.60455 30 5.13068 29.0156 3.07841 27.0469C1.02614 25.0781 0 22.6719 0 19.8281C0 17.3906 0.747727 15.2188 2.24318 13.3125C3.73864 11.4062 5.69545 10.1875 8.11364 9.65625C8.90909 6.78125 10.5 4.45312 12.8864 2.67188C15.2727 0.890625 17.9773 0 21 0C24.7227 0 27.8807 1.27344 30.4739 3.82031C33.067 6.36719 34.3636 9.46875 34.3636 13.125C36.5591 13.375 38.3807 14.3047 39.8284 15.9141C41.2761 17.5234 42 19.4062 42 21.5625C42 23.9062 41.1648 25.8984 39.4943 27.5391C37.8239 29.1797 35.7955 30 33.4091 30H22.9091C21.8591 30 20.9602 29.6328 20.2125 28.8984C19.4648 28.1641 19.0909 27.2812 19.0909 26.25V16.5938L16.0364 19.5L13.3636 16.875L21 9.375L28.6364 16.875L25.9636 19.5L22.9091 16.5938V26.25H33.4091C34.7455 26.25 35.875 25.7969 36.7977 24.8906C37.7205 23.9844 38.1818 22.875 38.1818 21.5625C38.1818 20.25 37.7205 19.1406 36.7977 18.2344C35.875 17.3281 34.7455 16.875 33.4091 16.875H30.5455V13.125C30.5455 10.5312 29.6148 8.32031 27.7534 6.49219C25.892 4.66406 23.6409 3.75 21 3.75C18.3591 3.75 16.108 4.66406 14.2466 6.49219C12.3852 8.32031 11.4545 10.5312 11.4545 13.125H10.5C8.65454 13.125 7.07955 13.7656 5.775 15.0469C4.47045 16.3281 3.81818 17.875 3.81818 19.6875C3.81818 21.5 4.47045 23.0469 5.775 24.3281C7.07955 25.6094 8.65454 26.25 10.5 26.25H15.2727V30H10.5Z" fill="white"/>
</svg>
