<svg width="79" height="84" viewBox="0 0 79 84" fill="none" xmlns="http://www.w3.org/2000/svg">
<path d="M12.466 84V65.94C8.51841 62.3 5.45386 58.0475 3.27232 53.1825C1.09077 48.3175 0 43.19 0 37.8C0 27.3 3.63591 18.375 10.9077 11.025C18.1795 3.675 27.0096 0 37.3979 0C46.0548 0 53.7248 2.5725 60.408 7.7175C67.0911 12.8625 71.4369 19.565 73.4453 27.825L78.8472 49.35C79.1935 50.68 78.9511 51.8875 78.12 52.9725C77.289 54.0575 76.1809 54.6 74.7958 54.6H66.4851V67.2C66.4851 69.51 65.6714 71.4875 64.0439 73.1325C62.4164 74.7775 60.4599 75.6 58.1745 75.6H49.8639V84H41.5532V67.2H58.1745V46.2H69.3939L65.4463 29.925C63.8534 23.555 60.4599 18.375 55.2658 14.385C50.0716 10.395 44.1157 8.4 37.3979 8.4C29.3643 8.4 22.508 11.235 16.8291 16.905C11.1501 22.575 8.31064 29.47 8.31064 37.59C8.31064 41.79 9.15902 45.78 10.8558 49.56C12.5525 53.34 14.9592 56.7 18.0756 59.64L20.7766 62.16V84H12.466ZM37.3979 58.8C38.5752 58.8 39.5621 58.3975 40.3586 57.5925C41.155 56.7875 41.5532 55.79 41.5532 54.6C41.5532 53.41 41.155 52.4125 40.3586 51.6075C39.5621 50.8025 38.5752 50.4 37.3979 50.4C36.2206 50.4 35.2337 50.8025 34.4372 51.6075C33.6408 52.4125 33.2426 53.41 33.2426 54.6C33.2426 55.79 33.6408 56.7875 34.4372 57.5925C35.2337 58.3975 36.2206 58.8 37.3979 58.8ZM34.2814 45.36H40.6183C40.6183 43.61 40.8433 42.1925 41.2935 41.1075C41.7437 40.0225 42.6613 38.71 44.0464 37.17C45.293 35.77 46.505 34.3525 47.6823 32.9175C48.8597 31.4825 49.4483 29.61 49.4483 27.3C49.4483 24.36 48.3229 21.875 46.0721 19.845C43.8213 17.815 41.0338 16.8 37.7095 16.8C34.9393 16.8 32.4288 17.605 30.178 19.215C27.9272 20.825 26.3517 22.925 25.4513 25.515L31.1649 27.93C31.6497 26.39 32.4981 25.1475 33.71 24.2025C34.922 23.2575 36.2552 22.785 37.7095 22.785C39.2332 22.785 40.4971 23.205 41.5013 24.045C42.5055 24.885 43.0076 25.97 43.0076 27.3C43.0076 28.77 42.5747 30.0825 41.709 31.2375C40.8433 32.3925 39.8218 33.565 38.6445 34.755C37.2594 36.225 36.1859 37.695 35.4241 39.165C34.6623 40.635 34.2814 42.7 34.2814 45.36Z" fill="#FF7E36"/>
</svg>
