<svg width="82" height="84" viewBox="0 0 82 84" fill="none" xmlns="http://www.w3.org/2000/svg">
<path d="M52.4297 79.485L34.6036 61.635L40.4757 55.755L52.4297 67.725L76.1279 43.995L82 49.875L52.4297 79.485ZM75.4987 37.8H67.11V16.8H58.7212V29.4H16.7775V16.8H8.38875V75.6H33.555V84H8.38875C6.08184 84 4.10699 83.1775 2.46419 81.5325C0.821398 79.8875 0 77.91 0 75.6V16.8C0 14.49 0.821398 12.5125 2.46419 10.8675C4.10699 9.2225 6.08184 8.4 8.38875 8.4H25.9003C26.6692 5.95 28.1722 3.9375 30.4092 2.3625C32.6462 0.7875 35.0929 0 37.7494 0C40.5456 0 43.0448 0.7875 45.2468 2.3625C47.4488 3.9375 48.9344 5.95 49.7033 8.4H67.11C69.4169 8.4 71.3917 9.2225 73.0345 10.8675C74.6773 12.5125 75.4987 14.49 75.4987 16.8V37.8ZM37.7494 16.8C38.9378 16.8 39.9339 16.3975 40.7379 15.5925C41.5418 14.7875 41.9437 13.79 41.9437 12.6C41.9437 11.41 41.5418 10.4125 40.7379 9.6075C39.9339 8.8025 38.9378 8.4 37.7494 8.4C36.561 8.4 35.5648 8.8025 34.7609 9.6075C33.957 10.4125 33.555 11.41 33.555 12.6C33.555 13.79 33.957 14.7875 34.7609 15.5925C35.5648 16.3975 36.561 16.8 37.7494 16.8Z" fill="#FF7E36"/>
</svg>
