<svg width="84" height="84" viewBox="0 0 84 84" fill="none" xmlns="http://www.w3.org/2000/svg">
<path d="M25.2 67.2L42 54.39L58.8 67.2L52.5 46.41L69.3 34.44H48.72L42 12.6L35.28 34.44H14.7L31.5 46.41L25.2 67.2ZM42 84C36.19 84 30.73 82.8975 25.62 80.6925C20.51 78.4875 16.065 75.495 12.285 71.715C8.505 67.935 5.5125 63.49 3.3075 58.38C1.1025 53.27 0 47.81 0 42C0 36.19 1.1025 30.73 3.3075 25.62C5.5125 20.51 8.505 16.065 12.285 12.285C16.065 8.505 20.51 5.5125 25.62 3.3075C30.73 1.1025 36.19 0 42 0C47.81 0 53.27 1.1025 58.38 3.3075C63.49 5.5125 67.935 8.505 71.715 12.285C75.495 16.065 78.4875 20.51 80.6925 25.62C82.8975 30.73 84 36.19 84 42C84 47.81 82.8975 53.27 80.6925 58.38C78.4875 63.49 75.495 67.935 71.715 71.715C67.935 75.495 63.49 78.4875 58.38 80.6925C53.27 82.8975 47.81 84 42 84ZM42 75.6C51.38 75.6 59.325 72.345 65.835 65.835C72.345 59.325 75.6 51.38 75.6 42C75.6 32.62 72.345 24.675 65.835 18.165C59.325 11.655 51.38 8.4 42 8.4C32.62 8.4 24.675 11.655 18.165 18.165C11.655 24.675 8.4 32.62 8.4 42C8.4 51.38 11.655 59.325 18.165 65.835C24.675 72.345 32.62 75.6 42 75.6Z" fill="#FF7E36"/>
</svg>
