<svg width="92" height="92" viewBox="0 0 92 92" fill="none" xmlns="http://www.w3.org/2000/svg">
<path d="M46 12.5455C55.3394 12.5455 63.25 15.7864 69.7318 22.2682C76.2136 28.75 79.4545 36.6606 79.4545 46C79.4545 55.3394 76.2136 63.25 69.7318 69.7318C63.25 76.2136 55.3394 79.4545 46 79.4545C36.6606 79.4545 28.75 76.2136 22.2682 69.7318C15.7864 63.25 12.5455 55.3394 12.5455 46C12.5455 36.6606 15.7864 28.75 22.2682 22.2682C28.75 15.7864 36.6606 12.5455 46 12.5455ZM46 71.0909C52.9697 71.0909 58.8939 68.6515 63.7727 63.7727C68.6515 58.8939 71.0909 52.9697 71.0909 46C71.0909 39.0303 68.6515 33.1061 63.7727 28.2273C58.8939 23.3485 52.9697 20.9091 46 20.9091C39.0303 20.9091 33.1061 23.3485 28.2273 28.2273C23.3485 33.1061 20.9091 39.0303 20.9091 46C20.9091 52.9697 23.3485 58.8939 28.2273 63.7727C33.1061 68.6515 39.0303 71.0909 46 71.0909ZM46 60.6364C49.3455 60.6364 52.3424 59.678 54.9909 57.7614C57.6394 55.8447 59.5212 53.3182 60.6364 50.1818H31.3636C32.4788 53.3182 34.3606 55.8447 37.0091 57.7614C39.6576 59.678 42.6545 60.6364 46 60.6364ZM31.3636 37.6364C31.3636 38.8212 31.7644 39.8144 32.5659 40.6159C33.3674 41.4174 34.3606 41.8182 35.5455 41.8182C36.7303 41.8182 37.7235 41.4174 38.525 40.6159C39.3265 39.8144 39.7273 38.8212 39.7273 37.6364C39.7273 36.4515 39.3265 35.4583 38.525 34.6568C37.7235 33.8553 36.7303 33.4545 35.5455 33.4545C34.3606 33.4545 33.3674 33.8553 32.5659 34.6568C31.7644 35.4583 31.3636 36.4515 31.3636 37.6364ZM52.2727 37.6364C52.2727 38.8212 52.6735 39.8144 53.475 40.6159C54.2765 41.4174 55.2697 41.8182 56.4545 41.8182C57.6394 41.8182 58.6326 41.4174 59.4341 40.6159C60.2356 39.8144 60.6364 38.8212 60.6364 37.6364C60.6364 36.4515 60.2356 35.4583 59.4341 34.6568C58.6326 33.8553 57.6394 33.4545 56.4545 33.4545C55.2697 33.4545 54.2765 33.8553 53.475 34.6568C52.6735 35.4583 52.2727 36.4515 52.2727 37.6364ZM0 20.9091V12.5455C0 9.06061 1.2197 6.09848 3.65909 3.65909C6.09848 1.2197 9.06061 0 12.5455 0H20.9091V8.36364H12.5455C11.3606 8.36364 10.3674 8.76439 9.56591 9.56591C8.76439 10.3674 8.36364 11.3606 8.36364 12.5455V20.9091H0ZM12.5455 92C9.06061 92 6.09848 90.7803 3.65909 88.3409C1.2197 85.9015 0 82.9394 0 79.4545V71.0909H8.36364V79.4545C8.36364 80.6394 8.76439 81.6326 9.56591 82.4341C10.3674 83.2356 11.3606 83.6364 12.5455 83.6364H20.9091V92H12.5455ZM71.0909 92V83.6364H79.4545C80.6394 83.6364 81.6326 83.2356 82.4341 82.4341C83.2356 81.6326 83.6364 80.6394 83.6364 79.4545V71.0909H92V79.4545C92 82.9394 90.7803 85.9015 88.3409 88.3409C85.9015 90.7803 82.9394 92 79.4545 92H71.0909ZM83.6364 20.9091V12.5455C83.6364 11.3606 83.2356 10.3674 82.4341 9.56591C81.6326 8.76439 80.6394 8.36364 79.4545 8.36364H71.0909V0H79.4545C82.9394 0 85.9015 1.2197 88.3409 3.65909C90.7803 6.09848 92 9.06061 92 12.5455V20.9091H83.6364Z" fill="#FF7E36"/>
</svg>
