<svg width="67" height="84" viewBox="0 0 67 84" fill="none" xmlns="http://www.w3.org/2000/svg">
<path d="M29.1031 67.2L52.7625 43.47L46.6906 37.38L28.9984 55.125L20.2047 46.305L14.2375 52.29L29.1031 67.2ZM8.375 84C6.07187 84 4.10026 83.1775 2.46016 81.5325C0.820052 79.8875 0 77.91 0 75.6V8.4C0 6.09 0.820052 4.1125 2.46016 2.4675C4.10026 0.8225 6.07187 0 8.375 0H41.875L67 25.2V75.6C67 77.91 66.1799 79.8875 64.5398 81.5325C62.8997 83.1775 60.9281 84 58.625 84H8.375ZM37.6875 29.4V8.4H8.375V75.6H58.625V29.4H37.6875Z" fill="#FF7E36"/>
</svg>
