<svg width="33" height="33" viewBox="0 0 33 33" fill="none" xmlns="http://www.w3.org/2000/svg">
<path d="M6.6 14.85H9.075V11.55H6.6V14.85ZM10.725 18.15H13.2V8.25H10.725V18.15ZM15.2625 21.45H17.7375V4.95H15.2625V21.45ZM19.8 18.15H22.275V8.25H19.8V18.15ZM23.925 14.85H26.4V11.55H23.925V14.85ZM0 33V3.3C0 2.3925 0.323125 1.61563 0.969375 0.969375C1.61563 0.323125 2.3925 0 3.3 0H29.7C30.6075 0 31.3844 0.323125 32.0306 0.969375C32.6769 1.61563 33 2.3925 33 3.3V23.1C33 24.0075 32.6769 24.7844 32.0306 25.4306C31.3844 26.0769 30.6075 26.4 29.7 26.4H6.6L0 33ZM5.1975 23.1H29.7V3.3H3.3V24.9563L5.1975 23.1Z" fill="white"/>
</svg>
