<svg width="87" height="62" viewBox="0 0 87 62" fill="none" xmlns="http://www.w3.org/2000/svg">
<path d="M21.75 62C15.7523 62 10.6278 59.9656 6.3767 55.8969C2.12557 51.8281 0 46.8552 0 40.9781C0 35.9406 1.54886 31.4521 4.64659 27.5125C7.74432 23.5729 11.7977 21.0542 16.8068 19.9562C18.4545 14.0146 21.75 9.20312 26.6932 5.52187C31.6364 1.84062 37.2386 0 43.5 0C51.2114 0 57.7528 2.63177 63.1244 7.89531C68.496 13.1589 71.1818 19.5687 71.1818 27.125C75.7295 27.6417 79.5028 29.563 82.5017 32.8891C85.5006 36.2151 87 40.1062 87 44.5625C87 49.4062 85.2699 53.5234 81.8097 56.9141C78.3494 60.3047 74.1477 62 69.2045 62H47.4545C45.2795 62 43.4176 61.2411 41.8688 59.7234C40.3199 58.2057 39.5455 56.3812 39.5455 54.25V34.2938L33.2182 40.3L27.6818 34.875L43.5 19.375L59.3182 34.875L53.7818 40.3L47.4545 34.2938V54.25H69.2045C71.9727 54.25 74.3125 53.3135 76.2239 51.4406C78.1352 49.5677 79.0909 47.275 79.0909 44.5625C79.0909 41.85 78.1352 39.5573 76.2239 37.6844C74.3125 35.8115 71.9727 34.875 69.2045 34.875H63.2727V27.125C63.2727 21.7646 61.3449 17.1953 57.4892 13.4172C53.6335 9.63906 48.9705 7.75 43.5 7.75C38.0295 7.75 33.3665 9.63906 29.5108 13.4172C25.6551 17.1953 23.7273 21.7646 23.7273 27.125H21.75C17.9273 27.125 14.6648 28.449 11.9625 31.0969C9.26023 33.7448 7.90909 36.9417 7.90909 40.6875C7.90909 44.4333 9.26023 47.6302 11.9625 50.2781C14.6648 52.926 17.9273 54.25 21.75 54.25H31.6364V62H21.75Z" fill="#FF7E36"/>
</svg>
