<svg width="76" height="76" viewBox="0 0 76 76" fill="none" xmlns="http://www.w3.org/2000/svg">
<path d="M34.8333 44.3333C37.5074 44.3333 39.7593 43.4185 41.5889 41.5889C43.4185 39.7593 44.3333 37.5074 44.3333 34.8333C44.3333 32.1593 43.4185 29.9074 41.5889 28.0778C39.7593 26.2481 37.5074 25.3333 34.8333 25.3333C32.1593 25.3333 29.9074 26.2481 28.0778 28.0778C26.2481 29.9074 25.3333 32.1593 25.3333 34.8333C25.3333 37.5074 26.2481 39.7593 28.0778 41.5889C29.9074 43.4185 32.1593 44.3333 34.8333 44.3333ZM55.2056 61.2222L44.1222 50.1389C42.7148 51.0537 41.2194 51.7222 39.6361 52.1444C38.0528 52.5667 36.4519 52.7778 34.8333 52.7778C29.837 52.7778 25.5972 51.0361 22.1139 47.5528C18.6306 44.0694 16.8889 39.8296 16.8889 34.8333C16.8889 29.837 18.6306 25.5972 22.1139 22.1139C25.5972 18.6306 29.837 16.8889 34.8333 16.8889C39.8296 16.8889 44.0694 18.6306 47.5528 22.1139C51.0361 25.5972 52.7778 29.837 52.7778 34.8333C52.7778 36.4519 52.5491 38.0528 52.0917 39.6361C51.6343 41.2194 50.9482 42.7148 50.0333 44.1222L61.2222 55.3111L55.2056 61.2222ZM8.44444 76C6.12222 76 4.13426 75.1731 2.48056 73.5194C0.826852 71.8657 0 69.8778 0 67.5556V50.6667H8.44444V67.5556H25.3333V76H8.44444ZM50.6667 76V67.5556H67.5556V50.6667H76V67.5556C76 69.8778 75.1731 71.8657 73.5194 73.5194C71.8657 75.1731 69.8778 76 67.5556 76H50.6667ZM0 25.3333V8.44444C0 6.12222 0.826852 4.13426 2.48056 2.48056C4.13426 0.826852 6.12222 0 8.44444 0H25.3333V8.44444H8.44444V25.3333H0ZM67.5556 25.3333V8.44444H50.6667V0H67.5556C69.8778 0 71.8657 0.826852 73.5194 2.48056C75.1731 4.13426 76 6.12222 76 8.44444V25.3333H67.5556Z" fill="#FF7E36"/>
</svg>
