<svg width="72" height="70" viewBox="0 0 72 70" fill="none" xmlns="http://www.w3.org/2000/svg">
<path d="M2 70C0.89543 70 0 69.1046 0 68V62L8 54V68C8 69.1046 7.10457 70 6 70H2ZM18 70C16.8954 70 16 69.1046 16 68V46L24 38V68C24 69.1046 23.1046 70 22 70H18ZM34 70C32.8954 70 32 69.1046 32 68V38L40 46.1V68C40 69.1046 39.1046 70 38 70H34ZM50 70C48.8954 70 48 69.1046 48 68V46.1L56 38.1V68C56 69.1046 55.1046 70 54 70H50ZM66 70C64.8954 70 64 69.1046 64 68V30L72 22V68C72 69.1046 71.1046 70 70 70H66ZM3.41421 45.8858C2.15428 47.1457 0 46.2534 0 44.4716V38.8284C0 38.298 0.210714 37.7893 0.585786 37.4142L28 10L44 26L68.5858 1.41421C69.8457 0.154279 72 1.04662 72 2.82843V8.47157C72 9.00201 71.7893 9.51071 71.4142 9.88579L44 37.3L28 21.3L3.41421 45.8858Z" fill="#FF7E36"/>
</svg>
