<svg width="282" height="74" viewBox="0 0 282 74" fill="none" xmlns="http://www.w3.org/2000/svg">
<path opacity="0.5" d="M62.5 67.3636C62.5 66.9754 62.5947 66.6214 62.7841 66.3018C62.9735 65.9822 63.228 65.7277 63.5476 65.5384C63.8672 65.349 64.2211 65.2543 64.6094 65.2543C64.9455 65.2543 65.2557 65.3265 65.5398 65.4709C65.8262 65.6153 66.063 65.813 66.25 66.0639C66.437 66.3125 66.553 66.5942 66.598 66.9091H65.7386C65.6913 66.6652 65.5599 66.4664 65.3445 66.3125C65.129 66.1562 64.884 66.0781 64.6094 66.0781C64.3726 66.0781 64.1572 66.1361 63.9631 66.2521C63.7689 66.3681 63.6139 66.5232 63.4979 66.7173C63.3819 66.9115 63.3239 67.1269 63.3239 67.3636C63.3239 67.6004 63.3819 67.8158 63.4979 68.0099C63.6139 68.2041 63.7689 68.3591 63.9631 68.4751C64.1572 68.5911 64.3726 68.6491 64.6094 68.6491C64.884 68.6491 65.116 68.5722 65.3054 68.4183C65.4972 68.2621 65.6179 68.062 65.6676 67.8182H66.527C66.482 68.133 66.3719 68.416 66.1967 68.6669C66.0215 68.9155 65.7966 69.112 65.522 69.2564C65.2498 69.4008 64.9455 69.473 64.6094 69.473C64.2211 69.473 63.8672 69.3783 63.5476 69.1889C63.228 68.9995 62.9735 68.745 62.7841 68.4254C62.5947 68.1058 62.5 67.7519 62.5 67.3636ZM64.5739 71.1136C64.0578 71.1136 63.5724 71.0166 63.1179 70.8224C62.6657 70.6283 62.2668 70.3596 61.9212 70.0163C61.5779 69.6707 61.308 69.2718 61.1115 68.8196C60.9174 68.3674 60.8215 67.8821 60.8239 67.3636C60.8262 66.8452 60.9245 66.3598 61.1186 65.9077C61.3151 65.4555 61.585 65.0578 61.9283 64.7145C62.2715 64.3688 62.6693 64.099 63.1214 63.9048C63.5736 63.7107 64.0578 63.6136 64.5739 63.6136C65.0923 63.6136 65.5777 63.7107 66.0298 63.9048C66.4844 64.099 66.8821 64.3688 67.223 64.7145C67.5663 65.0578 67.835 65.4555 68.0291 65.9077C68.2232 66.3598 68.3215 66.8452 68.3239 67.3636C68.3262 67.8821 68.2304 68.3674 68.0362 68.8196C67.8421 69.2718 67.5734 69.6707 67.2301 70.0163C66.8868 70.3596 66.4879 70.6283 66.0334 70.8224C65.5788 71.0166 65.0923 71.1136 64.5739 71.1136ZM64.5739 70.2898C64.9787 70.2898 65.3587 70.214 65.7138 70.0625C66.0689 69.911 66.3802 69.7015 66.6477 69.4339C66.9152 69.1664 67.1248 68.8563 67.2763 68.5036C67.4278 68.1484 67.5024 67.7696 67.5 67.3672C67.4976 66.9624 67.4207 66.5824 67.2692 66.2273C67.1177 65.8722 66.9081 65.5608 66.6406 65.2933C66.3731 65.0258 66.063 64.8163 65.7102 64.6648C65.3575 64.5133 64.9787 64.4375 64.5739 64.4375C64.1714 64.4375 63.7938 64.5133 63.4411 64.6648C63.0883 64.8163 62.7782 65.027 62.5107 65.2969C62.2431 65.5644 62.0324 65.8757 61.8786 66.2308C61.727 66.5836 61.6501 66.9624 61.6477 67.3672C61.6454 67.7673 61.7199 68.1449 61.8714 68.5C62.023 68.8527 62.2325 69.1629 62.5 69.4304C62.7699 69.6979 63.0812 69.9086 63.4339 70.0625C63.7891 70.214 64.169 70.2898 64.5739 70.2898ZM72.7157 71V70.3608L75.1163 67.733C75.398 67.4252 75.63 67.1577 75.8123 66.9304C75.9946 66.7008 76.1296 66.4853 76.2172 66.2841C76.3071 66.0805 76.3521 65.8674 76.3521 65.6449C76.3521 65.3892 76.2905 65.1679 76.1674 64.9808C76.0467 64.7938 75.881 64.6494 75.6703 64.5476C75.4596 64.4458 75.2228 64.3949 74.96 64.3949C74.6807 64.3949 74.4368 64.4529 74.2285 64.5689C74.0225 64.6825 73.8627 64.8423 73.7491 65.0483C73.6378 65.2543 73.5822 65.4957 73.5822 65.7727H72.7441C72.7441 65.3466 72.8424 64.9725 73.0389 64.6506C73.2354 64.3286 73.5029 64.0777 73.8414 63.8977C74.1824 63.7178 74.5647 63.6278 74.9885 63.6278C75.4146 63.6278 75.7922 63.7178 76.1213 63.8977C76.4503 64.0777 76.7084 64.3203 76.8954 64.6257C77.0824 64.9311 77.176 65.2708 77.176 65.6449C77.176 65.9124 77.1274 66.174 77.0304 66.4297C76.9357 66.683 76.7699 66.9659 76.5332 67.2784C76.2988 67.5885 75.9733 67.9673 75.5566 68.4148L73.9231 70.1619V70.2188H77.3038V71H72.7157ZM81.1426 71.0994C80.6075 71.0994 80.1518 70.9538 79.7754 70.6626C79.399 70.3691 79.1113 69.9441 78.9125 69.3878C78.7136 68.8291 78.6142 68.1544 78.6142 67.3636C78.6142 66.5777 78.7136 65.9065 78.9125 65.3501C79.1137 64.7914 79.4025 64.3653 79.7789 64.0717C80.1577 63.7758 80.6123 63.6278 81.1426 63.6278C81.6729 63.6278 82.1262 63.7758 82.5027 64.0717C82.8815 64.3653 83.1703 64.7914 83.3691 65.3501C83.5704 65.9065 83.671 66.5777 83.671 67.3636C83.671 68.1544 83.5716 68.8291 83.3727 69.3878C83.1738 69.9441 82.8862 70.3691 82.5098 70.6626C82.1333 70.9538 81.6776 71.0994 81.1426 71.0994ZM81.1426 70.3182C81.6729 70.3182 82.0848 70.0625 82.3784 69.5511C82.6719 69.0398 82.8187 68.3106 82.8187 67.3636C82.8187 66.7339 82.7512 66.1977 82.6163 65.755C82.4837 65.3123 82.292 64.9749 82.041 64.7429C81.7924 64.5109 81.493 64.3949 81.1426 64.3949C80.617 64.3949 80.2063 64.6541 79.9103 65.1726C79.6144 65.6887 79.4664 66.419 79.4664 67.3636C79.4664 67.9934 79.5327 68.5284 79.6653 68.9688C79.7979 69.4091 79.9885 69.7441 80.237 69.9737C80.488 70.2034 80.7898 70.3182 81.1426 70.3182ZM85.0204 71V70.3608L87.421 67.733C87.7027 67.4252 87.9347 67.1577 88.117 66.9304C88.2993 66.7008 88.4342 66.4853 88.5218 66.2841C88.6118 66.0805 88.6568 65.8674 88.6568 65.6449C88.6568 65.3892 88.5952 65.1679 88.4721 64.9808C88.3514 64.7938 88.1857 64.6494 87.975 64.5476C87.7643 64.4458 87.5275 64.3949 87.2647 64.3949C86.9854 64.3949 86.7415 64.4529 86.5332 64.5689C86.3272 64.6825 86.1674 64.8423 86.0538 65.0483C85.9425 65.2543 85.8869 65.4957 85.8869 65.7727H85.0488C85.0488 65.3466 85.1471 64.9725 85.3436 64.6506C85.5401 64.3286 85.8076 64.0777 86.1461 63.8977C86.487 63.7178 86.8694 63.6278 87.2931 63.6278C87.7193 63.6278 88.0969 63.7178 88.426 63.8977C88.755 64.0777 89.0131 64.3203 89.2001 64.6257C89.3871 64.9311 89.4806 65.2708 89.4806 65.6449C89.4806 65.9124 89.4321 66.174 89.335 66.4297C89.2404 66.683 89.0746 66.9659 88.8379 67.2784C88.6035 67.5885 88.278 67.9673 87.8613 68.4148L86.2278 70.1619V70.2188H89.6085V71H85.0204ZM93.5325 71.0994C93.0637 71.0994 92.6459 71.0189 92.2789 70.858C91.9144 70.697 91.6243 70.4732 91.4089 70.1868C91.1958 69.898 91.0798 69.563 91.0609 69.1818H91.9558C91.9747 69.4162 92.0552 69.6186 92.1973 69.7891C92.3393 69.9571 92.5252 70.0874 92.7548 70.1797C92.9844 70.272 93.2389 70.3182 93.5183 70.3182C93.8308 70.3182 94.1078 70.2637 94.3493 70.1548C94.5907 70.0459 94.7801 69.8944 94.9174 69.7003C95.0547 69.5062 95.1234 69.2812 95.1234 69.0256C95.1234 68.758 95.0571 68.5225 94.9245 68.3189C94.792 68.1129 94.5978 67.9519 94.3422 67.8359C94.0865 67.7199 93.774 67.6619 93.4047 67.6619H92.8223V66.8807H93.4047C93.6935 66.8807 93.9468 66.8286 94.1646 66.7244C94.3848 66.6203 94.5564 66.4735 94.6795 66.2841C94.805 66.0947 94.8677 65.8722 94.8677 65.6165C94.8677 65.3703 94.8133 65.156 94.7044 64.9737C94.5955 64.7914 94.4416 64.6494 94.2427 64.5476C94.0462 64.4458 93.8142 64.3949 93.5467 64.3949C93.2958 64.3949 93.059 64.4411 92.8365 64.5334C92.6163 64.6233 92.4364 64.7547 92.2967 64.9276C92.157 65.098 92.0813 65.304 92.0694 65.5455H91.2172C91.2314 65.1643 91.3462 64.8305 91.5616 64.544C91.777 64.2552 92.0588 64.0303 92.4068 63.8693C92.7572 63.7083 93.1419 63.6278 93.5609 63.6278C94.0107 63.6278 94.3966 63.719 94.7186 63.9013C95.0405 64.0812 95.2879 64.3191 95.4608 64.6151C95.6336 64.911 95.72 65.2306 95.72 65.5739C95.72 65.9834 95.6123 66.3326 95.3968 66.6214C95.1838 66.9103 94.8938 67.1103 94.5268 67.2216V67.2784C94.9861 67.3542 95.3448 67.5495 95.6028 67.8643C95.8609 68.1768 95.9899 68.5639 95.9899 69.0256C95.9899 69.4209 95.8822 69.776 95.6667 70.0909C95.4537 70.4034 95.1625 70.6496 94.7931 70.8295C94.4238 71.0095 94.0036 71.0994 93.5325 71.0994ZM100.681 71H99.7576L102.428 63.7273H103.337L106.008 71H105.084L102.911 64.8778H102.854L100.681 71ZM101.022 68.1591H104.743V68.9403H101.022V68.1591ZM108.021 63.7273V71H107.14V63.7273H108.021ZM115.639 66H114.759C114.706 65.7467 114.615 65.5241 114.485 65.3324C114.357 65.1406 114.201 64.9796 114.016 64.8494C113.834 64.7169 113.632 64.6174 113.409 64.5511C113.187 64.4848 112.955 64.4517 112.713 64.4517C112.273 64.4517 111.874 64.563 111.516 64.7855C111.161 65.008 110.878 65.3359 110.668 65.7692C110.459 66.2024 110.355 66.7339 110.355 67.3636C110.355 67.9934 110.459 68.5249 110.668 68.9581C110.878 69.3913 111.161 69.7192 111.516 69.9418C111.874 70.1643 112.273 70.2756 112.713 70.2756C112.955 70.2756 113.187 70.2424 113.409 70.1761C113.632 70.1098 113.834 70.0116 114.016 69.8814C114.201 69.7488 114.357 69.5866 114.485 69.3949C114.615 69.2008 114.706 68.9782 114.759 68.7273H115.639C115.573 69.099 115.452 69.4316 115.277 69.7251C115.102 70.0187 114.884 70.2685 114.624 70.4744C114.363 70.678 114.071 70.8331 113.746 70.9396C113.424 71.0462 113.08 71.0994 112.713 71.0994C112.093 71.0994 111.541 70.9479 111.058 70.6449C110.575 70.3419 110.195 69.911 109.918 69.3523C109.641 68.7936 109.503 68.1307 109.503 67.3636C109.503 66.5966 109.641 65.9337 109.918 65.375C110.195 64.8163 110.575 64.3854 111.058 64.0824C111.541 63.7794 112.093 63.6278 112.713 63.6278C113.08 63.6278 113.424 63.6811 113.746 63.7876C114.071 63.8942 114.363 64.0504 114.624 64.2564C114.884 64.46 115.102 64.7086 115.277 65.0021C115.452 65.2933 115.573 65.6259 115.639 66ZM117.787 67.7188V71H116.949V63.7273H117.787V66.3977H117.858C117.986 66.116 118.177 65.8923 118.433 65.7266C118.691 65.5585 119.034 65.4744 119.463 65.4744C119.835 65.4744 120.16 65.549 120.439 65.6982C120.719 65.8449 120.935 66.071 121.089 66.3764C121.246 66.6795 121.324 67.0653 121.324 67.5341V71H120.486V67.5909C120.486 67.1577 120.373 66.8227 120.148 66.5859C119.926 66.3468 119.617 66.2273 119.221 66.2273C118.947 66.2273 118.701 66.2853 118.483 66.4013C118.267 66.5173 118.097 66.6866 117.971 66.9091C117.848 67.1316 117.787 67.4015 117.787 67.7188ZM124.462 71.1278C124.116 71.1278 123.803 71.0627 123.521 70.9325C123.239 70.8 123.016 70.6094 122.85 70.3608C122.684 70.1098 122.601 69.8068 122.601 69.4517C122.601 69.1392 122.663 68.8859 122.786 68.6918C122.909 68.4953 123.074 68.3414 123.279 68.2301C123.485 68.1188 123.713 68.036 123.961 67.9815C124.212 67.9247 124.464 67.8797 124.718 67.8466C125.049 67.804 125.318 67.772 125.524 67.7507C125.732 67.727 125.884 67.688 125.978 67.6335C126.075 67.5791 126.124 67.4844 126.124 67.3494V67.321C126.124 66.9706 126.028 66.6984 125.836 66.5043C125.647 66.3101 125.359 66.2131 124.973 66.2131C124.573 66.2131 124.26 66.3007 124.032 66.4759C123.805 66.651 123.645 66.8381 123.553 67.0369L122.757 66.7528C122.9 66.4214 123.089 66.1634 123.326 65.9787C123.565 65.7917 123.825 65.6615 124.107 65.5881C124.391 65.5123 124.67 65.4744 124.945 65.4744C125.12 65.4744 125.321 65.4957 125.549 65.5384C125.778 65.5786 126 65.6626 126.213 65.7905C126.428 65.9183 126.607 66.1113 126.749 66.3693C126.891 66.6274 126.962 66.973 126.962 67.4062V71H126.124V70.2614H126.081C126.025 70.3797 125.93 70.5064 125.797 70.6413C125.665 70.7763 125.488 70.8911 125.268 70.9858C125.048 71.0805 124.779 71.1278 124.462 71.1278ZM124.59 70.375C124.921 70.375 125.201 70.3099 125.428 70.1797C125.658 70.0495 125.83 69.8814 125.946 69.6754C126.065 69.4695 126.124 69.2528 126.124 69.0256V68.2585C126.088 68.3011 126.01 68.3402 125.89 68.3757C125.771 68.4089 125.634 68.4384 125.478 68.4645C125.324 68.4882 125.173 68.5095 125.027 68.5284C124.882 68.545 124.765 68.5592 124.675 68.571C124.457 68.5994 124.254 68.6456 124.064 68.7095C123.877 68.7711 123.726 68.8646 123.61 68.9901C123.496 69.1132 123.439 69.2812 123.439 69.4943C123.439 69.7855 123.547 70.0057 123.762 70.1548C123.98 70.3016 124.256 70.375 124.59 70.375ZM128.492 71V65.5455H129.301V66.3693H129.358C129.458 66.0994 129.637 65.8804 129.898 65.7124C130.158 65.5443 130.452 65.4602 130.779 65.4602C130.84 65.4602 130.917 65.4614 131.009 65.4638C131.102 65.4661 131.172 65.4697 131.219 65.4744V66.3267C131.191 66.3196 131.125 66.3089 131.024 66.2947C130.924 66.2782 130.819 66.2699 130.708 66.2699C130.442 66.2699 130.206 66.3255 129.997 66.4368C129.791 66.5457 129.628 66.6972 129.507 66.8913C129.389 67.0831 129.33 67.3021 129.33 67.5483V71H128.492ZM132.212 71V65.5455H133.022V66.3977H133.093C133.207 66.1065 133.39 65.8804 133.643 65.7195C133.897 65.5561 134.201 65.4744 134.556 65.4744C134.916 65.4744 135.215 65.5561 135.455 65.7195C135.696 65.8804 135.884 66.1065 136.019 66.3977H136.076C136.216 66.116 136.425 65.8923 136.705 65.7266C136.984 65.5585 137.319 65.4744 137.71 65.4744C138.197 65.4744 138.596 65.6271 138.906 65.9325C139.216 66.2356 139.371 66.7079 139.371 67.3494V71H138.533V67.3494C138.533 66.947 138.423 66.6593 138.203 66.4865C137.983 66.3137 137.724 66.2273 137.425 66.2273C137.042 66.2273 136.745 66.3433 136.534 66.5753C136.323 66.8049 136.218 67.0961 136.218 67.4489V71H135.366V67.2642C135.366 66.9541 135.265 66.7043 135.064 66.5149C134.863 66.3232 134.603 66.2273 134.286 66.2273C134.068 66.2273 133.865 66.2853 133.675 66.4013C133.488 66.5173 133.337 66.6783 133.221 66.8842C133.107 67.0878 133.05 67.3234 133.05 67.5909V71H132.212ZM147.807 65.5455C147.765 65.1856 147.592 64.9062 147.289 64.7074C146.986 64.5085 146.614 64.4091 146.174 64.4091C145.852 64.4091 145.57 64.4612 145.328 64.5653C145.089 64.6695 144.902 64.8127 144.767 64.995C144.635 65.1773 144.569 65.3845 144.569 65.6165C144.569 65.8106 144.615 65.9775 144.707 66.1172C144.802 66.2545 144.922 66.3693 145.069 66.4616C145.216 66.5516 145.37 66.6262 145.531 66.6854C145.692 66.7422 145.84 66.7884 145.975 66.8239L146.713 67.0227C146.903 67.0724 147.114 67.1411 147.346 67.2287C147.58 67.3163 147.804 67.4358 148.017 67.5874C148.232 67.7365 148.41 67.9283 148.549 68.1626C148.689 68.397 148.759 68.6847 148.759 69.0256C148.759 69.4186 148.656 69.7737 148.45 70.0909C148.246 70.4081 147.948 70.6603 147.555 70.8473C147.164 71.0343 146.69 71.1278 146.131 71.1278C145.61 71.1278 145.159 71.0438 144.778 70.8757C144.399 70.7076 144.101 70.4732 143.883 70.1726C143.668 69.8719 143.546 69.5227 143.517 69.125H144.426C144.45 69.3996 144.542 69.6269 144.703 69.8068C144.867 69.9844 145.073 70.117 145.321 70.2045C145.572 70.2898 145.842 70.3324 146.131 70.3324C146.467 70.3324 146.769 70.2779 147.037 70.169C147.304 70.0578 147.516 69.9039 147.672 69.7074C147.828 69.5085 147.907 69.2765 147.907 69.0114C147.907 68.7699 147.839 68.5734 147.704 68.4219C147.569 68.2704 147.392 68.1473 147.172 68.0526C146.951 67.9579 146.713 67.875 146.458 67.804L145.563 67.5483C144.995 67.3849 144.545 67.1518 144.213 66.8487C143.882 66.5457 143.716 66.1491 143.716 65.6591C143.716 65.2519 143.826 64.8968 144.047 64.5938C144.269 64.2884 144.567 64.0516 144.941 63.8835C145.318 63.7131 145.738 63.6278 146.202 63.6278C146.671 63.6278 147.087 63.7119 147.452 63.88C147.817 64.0457 148.105 64.273 148.319 64.5618C148.534 64.8506 148.648 65.1785 148.659 65.5455H147.807ZM151.698 71.1278C151.353 71.1278 151.039 71.0627 150.757 70.9325C150.476 70.8 150.252 70.6094 150.086 70.3608C149.92 70.1098 149.838 69.8068 149.838 69.4517C149.838 69.1392 149.899 68.8859 150.022 68.6918C150.145 68.4953 150.31 68.3414 150.516 68.2301C150.722 68.1188 150.949 68.036 151.198 67.9815C151.449 67.9247 151.701 67.8797 151.954 67.8466C152.285 67.804 152.554 67.772 152.76 67.7507C152.968 67.727 153.12 67.688 153.215 67.6335C153.312 67.5791 153.36 67.4844 153.36 67.3494V67.321C153.36 66.9706 153.264 66.6984 153.073 66.5043C152.883 66.3101 152.596 66.2131 152.21 66.2131C151.81 66.2131 151.496 66.3007 151.269 66.4759C151.041 66.651 150.882 66.8381 150.789 67.0369L149.994 66.7528C150.136 66.4214 150.325 66.1634 150.562 65.9787C150.801 65.7917 151.061 65.6615 151.343 65.5881C151.627 65.5123 151.907 65.4744 152.181 65.4744C152.356 65.4744 152.558 65.4957 152.785 65.5384C153.015 65.5786 153.236 65.6626 153.449 65.7905C153.664 65.9183 153.843 66.1113 153.985 66.3693C154.127 66.6274 154.198 66.973 154.198 67.4062V71H153.36V70.2614H153.318C153.261 70.3797 153.166 70.5064 153.034 70.6413C152.901 70.7763 152.725 70.8911 152.504 70.9858C152.284 71.0805 152.016 71.1278 151.698 71.1278ZM151.826 70.375C152.158 70.375 152.437 70.3099 152.664 70.1797C152.894 70.0495 153.067 69.8814 153.183 69.6754C153.301 69.4695 153.36 69.2528 153.36 69.0256V68.2585C153.325 68.3011 153.247 68.3402 153.126 68.3757C153.008 68.4089 152.87 68.4384 152.714 68.4645C152.56 68.4882 152.41 68.5095 152.263 68.5284C152.119 68.545 152.001 68.5592 151.911 68.571C151.694 68.5994 151.49 68.6456 151.301 68.7095C151.114 68.7711 150.962 68.8646 150.846 68.9901C150.732 69.1132 150.676 69.2812 150.676 69.4943C150.676 69.7855 150.783 70.0057 150.999 70.1548C151.217 70.3016 151.492 70.375 151.826 70.375ZM156.566 63.7273V71H155.728V63.7273H156.566ZM160.388 71.1136C159.862 71.1136 159.409 70.9976 159.028 70.7656C158.649 70.5312 158.357 70.2045 158.151 69.7855C157.947 69.3641 157.845 68.8741 157.845 68.3153C157.845 67.7566 157.947 67.2642 158.151 66.8381C158.357 66.4096 158.643 66.0758 159.01 65.8366C159.379 65.5952 159.81 65.4744 160.303 65.4744C160.587 65.4744 160.867 65.5218 161.144 65.6165C161.421 65.7112 161.673 65.8651 161.901 66.0781C162.128 66.2888 162.309 66.5682 162.444 66.9162C162.579 67.2642 162.646 67.6927 162.646 68.2017V68.5568H158.442V67.8324H161.794C161.794 67.5246 161.733 67.25 161.61 67.0085C161.489 66.767 161.316 66.5765 161.091 66.4368C160.869 66.2971 160.606 66.2273 160.303 66.2273C159.969 66.2273 159.68 66.3101 159.436 66.4759C159.195 66.6392 159.009 66.8523 158.879 67.1151C158.749 67.3778 158.683 67.6596 158.683 67.9602V68.4432C158.683 68.8551 158.754 69.2043 158.896 69.4908C159.041 69.7749 159.241 69.9915 159.497 70.1406C159.752 70.2874 160.049 70.3608 160.388 70.3608C160.608 70.3608 160.807 70.33 160.985 70.2685C161.164 70.2045 161.32 70.1098 161.45 69.9844C161.58 69.8565 161.681 69.6979 161.752 69.5085L162.561 69.7358C162.476 70.0104 162.333 70.2519 162.132 70.4602C161.93 70.6662 161.682 70.8272 161.386 70.9432C161.09 71.0568 160.757 71.1136 160.388 71.1136ZM167.785 66.767L167.032 66.9801C166.985 66.8546 166.915 66.7327 166.823 66.6143C166.733 66.4936 166.61 66.3942 166.453 66.3161C166.297 66.2379 166.097 66.1989 165.853 66.1989C165.519 66.1989 165.241 66.2758 165.019 66.4297C164.798 66.5812 164.688 66.7741 164.688 67.0085C164.688 67.2169 164.764 67.3814 164.916 67.5021C165.067 67.6229 165.304 67.7235 165.626 67.804L166.436 68.0028C166.923 68.1212 167.287 68.3023 167.526 68.5462C167.765 68.7876 167.884 69.099 167.884 69.4801C167.884 69.7926 167.794 70.072 167.615 70.3182C167.437 70.5644 167.188 70.7585 166.869 70.9006C166.549 71.0426 166.177 71.1136 165.754 71.1136C165.197 71.1136 164.737 70.9929 164.372 70.7514C164.008 70.5099 163.777 70.1572 163.68 69.6932L164.475 69.4943C164.551 69.7879 164.694 70.008 164.905 70.1548C165.118 70.3016 165.396 70.375 165.74 70.375C166.13 70.375 166.44 70.2921 166.67 70.1264C166.902 69.9583 167.018 69.7571 167.018 69.5227C167.018 69.3333 166.952 69.1747 166.819 69.0469C166.686 68.9167 166.483 68.8196 166.208 68.7557L165.299 68.5426C164.8 68.4242 164.433 68.2408 164.198 67.9922C163.966 67.7412 163.85 67.4276 163.85 67.0511C163.85 66.7434 163.937 66.4711 164.11 66.2344C164.285 65.9976 164.523 65.8118 164.823 65.6768C165.126 65.5419 165.47 65.4744 165.853 65.4744C166.393 65.4744 166.817 65.5928 167.124 65.8295C167.435 66.0663 167.655 66.3788 167.785 66.767ZM169.757 71.0568C169.582 71.0568 169.431 70.9941 169.306 70.8686C169.18 70.7431 169.118 70.5928 169.118 70.4176C169.118 70.2424 169.18 70.0921 169.306 69.9666C169.431 69.8411 169.582 69.7784 169.757 69.7784C169.932 69.7784 170.082 69.8411 170.208 69.9666C170.333 70.0921 170.396 70.2424 170.396 70.4176C170.396 70.5336 170.366 70.6402 170.307 70.7372C170.25 70.8343 170.173 70.9124 170.076 70.9716C169.982 71.0284 169.875 71.0568 169.757 71.0568ZM174.826 71V63.7273H177.369C177.875 63.7273 178.293 63.8149 178.622 63.9901C178.951 64.1629 179.196 64.3961 179.357 64.6896C179.518 64.9808 179.599 65.304 179.599 65.6591C179.599 65.9716 179.543 66.2296 179.432 66.4332C179.323 66.6368 179.179 66.7978 178.999 66.9162C178.821 67.0346 178.628 67.1222 178.42 67.179V67.25C178.642 67.2642 178.866 67.3423 179.091 67.4844C179.316 67.6264 179.504 67.83 179.656 68.0952C179.807 68.3603 179.883 68.6847 179.883 69.0682C179.883 69.4328 179.8 69.7607 179.634 70.0518C179.469 70.343 179.207 70.5739 178.849 70.7443C178.492 70.9148 178.027 71 177.454 71H174.826ZM175.707 70.2188H177.454C178.029 70.2188 178.438 70.1075 178.679 69.8849C178.923 69.66 179.045 69.3878 179.045 69.0682C179.045 68.822 178.982 68.5947 178.857 68.3864C178.731 68.1757 178.552 68.0076 178.32 67.8821C178.088 67.7543 177.814 67.6903 177.496 67.6903H175.707V70.2188ZM175.707 66.9233H177.34C177.605 66.9233 177.844 66.8712 178.058 66.767C178.273 66.6629 178.443 66.5161 178.569 66.3267C178.697 66.1373 178.761 65.9148 178.761 65.6591C178.761 65.3395 178.649 65.0684 178.427 64.8459C178.204 64.621 177.852 64.5085 177.369 64.5085H175.707V66.9233ZM183.432 71.1136C182.921 71.1136 182.48 70.9929 182.111 70.7514C181.742 70.5099 181.458 70.1773 181.259 69.7536C181.06 69.3298 180.961 68.8456 180.961 68.3011C180.961 67.7472 181.062 67.2583 181.266 66.8345C181.472 66.4084 181.758 66.0758 182.125 65.8366C182.495 65.5952 182.926 65.4744 183.418 65.4744C183.801 65.4744 184.147 65.5455 184.455 65.6875C184.763 65.8295 185.015 66.0284 185.211 66.2841C185.408 66.5398 185.53 66.8381 185.577 67.179H184.739C184.675 66.9304 184.533 66.7102 184.313 66.5185C184.095 66.3243 183.801 66.2273 183.432 66.2273C183.105 66.2273 182.819 66.3125 182.573 66.483C182.329 66.651 182.138 66.889 182.001 67.1967C181.866 67.5021 181.799 67.8608 181.799 68.2727C181.799 68.6941 181.865 69.0611 181.998 69.3736C182.132 69.6861 182.322 69.9287 182.566 70.1016C182.812 70.2744 183.101 70.3608 183.432 70.3608C183.65 70.3608 183.848 70.3229 184.025 70.2472C184.203 70.1714 184.353 70.0625 184.476 69.9205C184.599 69.7784 184.687 69.608 184.739 69.4091H185.577C185.53 69.7311 185.413 70.0211 185.225 70.2791C185.041 70.5348 184.796 70.7384 184.49 70.8899C184.187 71.0391 183.835 71.1136 183.432 71.1136ZM189.089 71.1136C188.564 71.1136 188.11 70.9976 187.729 70.7656C187.35 70.5312 187.058 70.2045 186.852 69.7855C186.648 69.3641 186.547 68.8741 186.547 68.3153C186.547 67.7566 186.648 67.2642 186.852 66.8381C187.058 66.4096 187.344 66.0758 187.711 65.8366C188.081 65.5952 188.511 65.4744 189.004 65.4744C189.288 65.4744 189.569 65.5218 189.846 65.6165C190.123 65.7112 190.375 65.8651 190.602 66.0781C190.829 66.2888 191.01 66.5682 191.145 66.9162C191.28 67.2642 191.348 67.6927 191.348 68.2017V68.5568H187.143V67.8324H190.495C190.495 67.5246 190.434 67.25 190.311 67.0085C190.19 66.767 190.017 66.5765 189.792 66.4368C189.57 66.2971 189.307 66.2273 189.004 66.2273C188.67 66.2273 188.381 66.3101 188.137 66.4759C187.896 66.6392 187.71 66.8523 187.58 67.1151C187.45 67.3778 187.385 67.6596 187.385 67.9602V68.4432C187.385 68.8551 187.456 69.2043 187.598 69.4908C187.742 69.7749 187.942 69.9915 188.198 70.1406C188.453 70.2874 188.751 70.3608 189.089 70.3608C189.309 70.3608 189.508 70.33 189.686 70.2685C189.866 70.2045 190.021 70.1098 190.151 69.9844C190.281 69.8565 190.382 69.6979 190.453 69.5085L191.262 69.7358C191.177 70.0104 191.034 70.2519 190.833 70.4602C190.632 70.6662 190.383 70.8272 190.087 70.9432C189.791 71.0568 189.458 71.1136 189.089 71.1136ZM195.435 71V65.5455H199.725V71H198.887V66.3267H196.273V71H195.435ZM201.255 73.0455V65.5455H202.065V66.4119H202.164C202.226 66.3172 202.311 66.1965 202.42 66.0497C202.531 65.9006 202.69 65.768 202.896 65.652C203.104 65.5336 203.386 65.4744 203.741 65.4744C204.2 65.4744 204.605 65.5893 204.956 65.8189C205.306 66.0485 205.579 66.3741 205.776 66.7955C205.972 67.2169 206.071 67.714 206.071 68.2869C206.071 68.8646 205.972 69.3653 205.776 69.7891C205.579 70.2105 205.307 70.5372 204.959 70.7692C204.611 70.9988 204.21 71.1136 203.755 71.1136C203.405 71.1136 203.124 71.0556 202.914 70.9396C202.703 70.8213 202.541 70.6875 202.427 70.5384C202.314 70.3868 202.226 70.2614 202.164 70.1619H202.093V73.0455H201.255ZM202.079 68.2727C202.079 68.6847 202.14 69.0481 202.26 69.3629C202.381 69.6754 202.557 69.9205 202.789 70.098C203.021 70.2732 203.306 70.3608 203.642 70.3608C203.992 70.3608 204.284 70.2685 204.519 70.0838C204.756 69.8968 204.933 69.6458 205.051 69.331C205.172 69.0137 205.233 68.661 205.233 68.2727C205.233 67.8892 205.173 67.5436 205.055 67.2358C204.939 66.9257 204.763 66.6806 204.526 66.5007C204.292 66.3184 203.997 66.2273 203.642 66.2273C203.301 66.2273 203.014 66.3137 202.782 66.4865C202.55 66.657 202.375 66.8961 202.257 67.2038C202.138 67.5092 202.079 67.8655 202.079 68.2727ZM208.954 71.1278C208.609 71.1278 208.295 71.0627 208.013 70.9325C207.731 70.8 207.508 70.6094 207.342 70.3608C207.176 70.1098 207.093 69.8068 207.093 69.4517C207.093 69.1392 207.155 68.8859 207.278 68.6918C207.401 68.4953 207.566 68.3414 207.772 68.2301C207.978 68.1188 208.205 68.036 208.453 67.9815C208.704 67.9247 208.957 67.8797 209.21 67.8466C209.541 67.804 209.81 67.772 210.016 67.7507C210.224 67.727 210.376 67.688 210.471 67.6335C210.568 67.5791 210.616 67.4844 210.616 67.3494V67.321C210.616 66.9706 210.52 66.6984 210.328 66.5043C210.139 66.3101 209.851 66.2131 209.466 66.2131C209.065 66.2131 208.752 66.3007 208.525 66.4759C208.297 66.651 208.137 66.8381 208.045 67.0369L207.25 66.7528C207.392 66.4214 207.581 66.1634 207.818 65.9787C208.057 65.7917 208.317 65.6615 208.599 65.5881C208.883 65.5123 209.163 65.4744 209.437 65.4744C209.612 65.4744 209.814 65.4957 210.041 65.5384C210.27 65.5786 210.492 65.6626 210.705 65.7905C210.92 65.9183 211.099 66.1113 211.241 66.3693C211.383 66.6274 211.454 66.973 211.454 67.4062V71H210.616V70.2614H210.574C210.517 70.3797 210.422 70.5064 210.289 70.6413C210.157 70.7763 209.98 70.8911 209.76 70.9858C209.54 71.0805 209.271 71.1278 208.954 71.1278ZM209.082 70.375C209.413 70.375 209.693 70.3099 209.92 70.1797C210.15 70.0495 210.323 69.8814 210.439 69.6754C210.557 69.4695 210.616 69.2528 210.616 69.0256V68.2585C210.581 68.3011 210.502 68.3402 210.382 68.3757C210.263 68.4089 210.126 68.4384 209.97 68.4645C209.816 68.4882 209.666 68.5095 209.519 68.5284C209.374 68.545 209.257 68.5592 209.167 68.571C208.949 68.5994 208.746 68.6456 208.556 68.7095C208.369 68.7711 208.218 68.8646 208.102 68.9901C207.988 69.1132 207.931 69.2812 207.931 69.4943C207.931 69.7855 208.039 70.0057 208.255 70.1548C208.472 70.3016 208.748 70.375 209.082 70.375ZM212.984 71V65.5455H215.214C215.801 65.5455 216.267 65.678 216.613 65.9432C216.959 66.2083 217.132 66.5587 217.132 66.9943C217.132 67.3258 217.033 67.5826 216.837 67.7649C216.64 67.9448 216.388 68.0668 216.08 68.1307C216.282 68.1591 216.477 68.2301 216.666 68.3438C216.858 68.4574 217.017 68.6136 217.142 68.8125C217.268 69.009 217.33 69.2505 217.33 69.5369C217.33 69.8163 217.259 70.0661 217.117 70.2862C216.975 70.5064 216.772 70.6804 216.507 70.8082C216.241 70.9361 215.924 71 215.555 71H212.984ZM213.779 70.233H215.555C215.844 70.233 216.07 70.1643 216.233 70.027C216.396 69.8897 216.478 69.7027 216.478 69.4659C216.478 69.1842 216.396 68.9628 216.233 68.8018C216.07 68.6385 215.844 68.5568 215.555 68.5568H213.779V70.233ZM213.779 67.8324H215.214C215.439 67.8324 215.632 67.8016 215.793 67.7401C215.954 67.6761 216.077 67.5862 216.162 67.4702C216.25 67.3518 216.294 67.2121 216.294 67.0511C216.294 66.8215 216.198 66.6416 216.006 66.5114C215.814 66.3788 215.55 66.3125 215.214 66.3125H213.779V67.8324ZM220.204 71.1278C219.859 71.1278 219.545 71.0627 219.263 70.9325C218.981 70.8 218.758 70.6094 218.592 70.3608C218.426 70.1098 218.343 69.8068 218.343 69.4517C218.343 69.1392 218.405 68.8859 218.528 68.6918C218.651 68.4953 218.816 68.3414 219.022 68.2301C219.228 68.1188 219.455 68.036 219.703 67.9815C219.954 67.9247 220.207 67.8797 220.46 67.8466C220.791 67.804 221.06 67.772 221.266 67.7507C221.474 67.727 221.626 67.688 221.721 67.6335C221.818 67.5791 221.866 67.4844 221.866 67.3494V67.321C221.866 66.9706 221.77 66.6984 221.578 66.5043C221.389 66.3101 221.101 66.2131 220.716 66.2131C220.315 66.2131 220.002 66.3007 219.775 66.4759C219.547 66.651 219.387 66.8381 219.295 67.0369L218.5 66.7528C218.642 66.4214 218.831 66.1634 219.068 65.9787C219.307 65.7917 219.567 65.6615 219.849 65.5881C220.133 65.5123 220.413 65.4744 220.687 65.4744C220.862 65.4744 221.064 65.4957 221.291 65.5384C221.52 65.5786 221.742 65.6626 221.955 65.7905C222.17 65.9183 222.349 66.1113 222.491 66.3693C222.633 66.6274 222.704 66.973 222.704 67.4062V71H221.866V70.2614H221.824C221.767 70.3797 221.672 70.5064 221.539 70.6413C221.407 70.7763 221.23 70.8911 221.01 70.9858C220.79 71.0805 220.521 71.1278 220.204 71.1278ZM220.332 70.375C220.663 70.375 220.943 70.3099 221.17 70.1797C221.4 70.0495 221.573 69.8814 221.689 69.6754C221.807 69.4695 221.866 69.2528 221.866 69.0256V68.2585C221.831 68.3011 221.752 68.3402 221.632 68.3757C221.513 68.4089 221.376 68.4384 221.22 68.4645C221.066 68.4882 220.916 68.5095 220.769 68.5284C220.624 68.545 220.507 68.5592 220.417 68.571C220.199 68.5994 219.996 68.6456 219.806 68.7095C219.619 68.7711 219.468 68.8646 219.352 68.9901C219.238 69.1132 219.181 69.2812 219.181 69.4943C219.181 69.7855 219.289 70.0057 219.505 70.1548C219.722 70.3016 219.998 70.375 220.332 70.375ZM226.705 69.608H227.6C227.619 69.8542 227.731 70.0412 227.934 70.169C228.14 70.2969 228.408 70.3608 228.737 70.3608C229.073 70.3608 229.36 70.2921 229.6 70.1548C229.839 70.0152 229.958 69.7902 229.958 69.4801C229.958 69.2978 229.913 69.1392 229.823 69.0043C229.733 68.867 229.607 68.7604 229.443 68.6847C229.28 68.6089 229.087 68.571 228.865 68.571H227.927V67.8182H228.865C229.198 67.8182 229.445 67.7424 229.603 67.5909C229.764 67.4394 229.845 67.25 229.845 67.0227C229.845 66.7789 229.758 66.5836 229.585 66.4368C229.413 66.2876 229.168 66.2131 228.85 66.2131C228.531 66.2131 228.264 66.2853 228.051 66.4297C227.838 66.5717 227.726 66.7552 227.714 66.9801H226.833C226.843 66.6866 226.933 66.4273 227.103 66.2024C227.274 65.9751 227.506 65.7976 227.799 65.6697C228.093 65.5395 228.429 65.4744 228.808 65.4744C229.191 65.4744 229.524 65.5419 229.806 65.6768C230.09 65.8094 230.309 65.9905 230.463 66.2202C230.619 66.4474 230.697 66.7055 230.697 66.9943C230.697 67.3021 230.61 67.5507 230.438 67.7401C230.265 67.9295 230.048 68.0644 229.788 68.1449V68.2017C229.994 68.2159 230.173 68.2822 230.324 68.4006C230.478 68.5166 230.597 68.6693 230.683 68.8587C230.768 69.0457 230.811 69.2528 230.811 69.4801C230.811 69.8116 230.722 70.1004 230.544 70.3466C230.367 70.5904 230.123 70.7798 229.813 70.9148C229.503 71.0473 229.149 71.1136 228.751 71.1136C228.365 71.1136 228.019 71.0509 227.714 70.9254C227.409 70.7976 227.166 70.6212 226.986 70.3963C226.808 70.169 226.715 69.9062 226.705 69.608ZM233.593 71.1278C233.247 71.1278 232.934 71.0627 232.652 70.9325C232.37 70.8 232.146 70.6094 231.981 70.3608C231.815 70.1098 231.732 69.8068 231.732 69.4517C231.732 69.1392 231.794 68.8859 231.917 68.6918C232.04 68.4953 232.204 68.3414 232.41 68.2301C232.616 68.1188 232.844 68.036 233.092 67.9815C233.343 67.9247 233.595 67.8797 233.849 67.8466C234.18 67.804 234.449 67.772 234.655 67.7507C234.863 67.727 235.015 67.688 235.109 67.6335C235.206 67.5791 235.255 67.4844 235.255 67.3494V67.321C235.255 66.9706 235.159 66.6984 234.967 66.5043C234.778 66.3101 234.49 66.2131 234.104 66.2131C233.704 66.2131 233.39 66.3007 233.163 66.4759C232.936 66.651 232.776 66.8381 232.684 67.0369L231.888 66.7528C232.03 66.4214 232.22 66.1634 232.456 65.9787C232.696 65.7917 232.956 65.6615 233.238 65.5881C233.522 65.5123 233.801 65.4744 234.076 65.4744C234.251 65.4744 234.452 65.4957 234.68 65.5384C234.909 65.5786 235.131 65.6626 235.344 65.7905C235.559 65.9183 235.738 66.1113 235.88 66.3693C236.022 66.6274 236.093 66.973 236.093 67.4062V71H235.255V70.2614H235.212C235.155 70.3797 235.061 70.5064 234.928 70.6413C234.796 70.7763 234.619 70.8911 234.399 70.9858C234.179 71.0805 233.91 71.1278 233.593 71.1278ZM233.721 70.375C234.052 70.375 234.331 70.3099 234.559 70.1797C234.788 70.0495 234.961 69.8814 235.077 69.6754C235.196 69.4695 235.255 69.2528 235.255 69.0256V68.2585C235.219 68.3011 235.141 68.3402 235.02 68.3757C234.902 68.4089 234.765 68.4384 234.608 68.4645C234.455 68.4882 234.304 68.5095 234.157 68.5284C234.013 68.545 233.896 68.5592 233.806 68.571C233.588 68.5994 233.385 68.6456 233.195 68.7095C233.008 68.7711 232.857 68.8646 232.741 68.9901C232.627 69.1132 232.57 69.2812 232.57 69.4943C232.57 69.7855 232.678 70.0057 232.893 70.1548C233.111 70.3016 233.387 70.375 233.721 70.375ZM245.066 70.2188L244.966 72.5625H244.1V71H243.39V70.2188H245.066ZM237.623 65.5455H238.461V70.2188H240.52V65.5455H241.358V70.2188H243.418V65.5455H244.256V71H237.623V65.5455ZM247.123 69.7642L249.751 65.5455H250.716V71H249.878V66.7812L247.265 71H246.285V65.5455H247.123V69.7642ZM259.695 70.2188L259.595 72.5625H258.729V71H258.018V70.2188H259.695ZM252.251 65.5455H253.089V70.2188H255.149V65.5455H255.987V70.2188H258.047V65.5455H258.885V71H252.251V65.5455ZM263.142 71.1136C262.616 71.1136 262.163 70.9976 261.782 70.7656C261.403 70.5312 261.111 70.2045 260.905 69.7855C260.701 69.3641 260.599 68.8741 260.599 68.3153C260.599 67.7566 260.701 67.2642 260.905 66.8381C261.111 66.4096 261.397 66.0758 261.764 65.8366C262.133 65.5952 262.564 65.4744 263.057 65.4744C263.341 65.4744 263.621 65.5218 263.898 65.6165C264.175 65.7112 264.427 65.8651 264.655 66.0781C264.882 66.2888 265.063 66.5682 265.198 66.9162C265.333 67.2642 265.4 67.6927 265.4 68.2017V68.5568H261.196V67.8324H264.548C264.548 67.5246 264.487 67.25 264.363 67.0085C264.243 66.767 264.07 66.5765 263.845 66.4368C263.622 66.2971 263.36 66.2273 263.057 66.2273C262.723 66.2273 262.434 66.3101 262.19 66.4759C261.949 66.6392 261.763 66.8523 261.633 67.1151C261.502 67.3778 261.437 67.6596 261.437 67.9602V68.4432C261.437 68.8551 261.508 69.2043 261.65 69.4908C261.795 69.7749 261.995 69.9915 262.251 70.1406C262.506 70.2874 262.803 70.3608 263.142 70.3608C263.362 70.3608 263.561 70.33 263.738 70.2685C263.918 70.2045 264.073 70.1098 264.204 69.9844C264.334 69.8565 264.434 69.6979 264.506 69.5085L265.315 69.7358C265.23 70.0104 265.087 70.2519 264.885 70.4602C264.684 70.6662 264.436 70.8272 264.14 70.9432C263.844 71.0568 263.511 71.1136 263.142 71.1136ZM270.326 67.8892V68.6705H267.314V67.8892H270.326ZM267.513 65.5455V71H266.675V65.5455H267.513ZM270.965 65.5455V71H270.127V65.5455H270.965ZM273.22 67.5199H274.782C275.422 67.5199 275.911 67.6821 276.249 68.0064C276.588 68.3307 276.757 68.7415 276.757 69.2386C276.757 69.5653 276.681 69.8625 276.53 70.13C276.378 70.3951 276.156 70.607 275.862 70.7656C275.568 70.9219 275.209 71 274.782 71H272.496V65.5455H273.334V70.2188H274.782C275.114 70.2188 275.386 70.1312 275.599 69.956C275.812 69.7808 275.919 69.5559 275.919 69.2812C275.919 68.9924 275.812 68.7569 275.599 68.5746C275.386 68.3923 275.114 68.3011 274.782 68.3011H273.22V67.5199ZM277.623 71V65.5455H278.461V71H277.623ZM280.606 71.0568C280.431 71.0568 280.281 70.9941 280.155 70.8686C280.03 70.7431 279.967 70.5928 279.967 70.4176C279.967 70.2424 280.03 70.0921 280.155 69.9666C280.281 69.8411 280.431 69.7784 280.606 69.7784C280.782 69.7784 280.932 69.8411 281.057 69.9666C281.183 70.0921 281.246 70.2424 281.246 70.4176C281.246 70.5336 281.216 70.6402 281.157 70.7372C281.1 70.8343 281.023 70.9124 280.926 70.9716C280.831 71.0284 280.725 71.0568 280.606 71.0568Z" fill="white"/>
<path d="M73.8462 20.1772L72.8528 17.0687H65.4734L64.4801 20.1772H59.5132L66.2682 0.395632H72.0581L78.8131 20.1772H73.8462ZM66.8358 12.8298H71.4905L69.1631 5.5671L66.8358 12.8298Z" fill="white"/>
<path d="M86.1836 0.395632H90.7247V20.1772H86.1836V0.395632Z" fill="white"/>
<path d="M109.294 20.5728C106.324 20.5728 103.855 19.5932 101.887 17.6339C99.9378 15.6557 98.9634 13.2066 98.9634 10.2864C98.9634 7.36628 99.9378 4.92655 101.887 2.96724C103.855 0.989079 106.324 0 109.294 0C111.073 0 112.719 0.414471 114.233 1.24341C115.747 2.05352 116.939 3.16505 117.809 4.57802L113.892 6.83877C113.457 6.06635 112.833 5.4729 112.019 5.05843C111.206 4.62512 110.297 4.40846 109.294 4.40846C107.535 4.40846 106.125 4.94539 105.066 6.01925C104.025 7.0931 103.505 8.51549 103.505 10.2864C103.505 12.0573 104.025 13.4797 105.066 14.5536C106.125 15.6274 107.535 16.1644 109.294 16.1644C110.297 16.1644 111.206 15.9477 112.019 15.5144C112.852 15.0811 113.476 14.4876 113.892 13.7341L117.809 15.9948C116.958 17.4078 115.775 18.5287 114.261 19.3577C112.748 20.1678 111.092 20.5728 109.294 20.5728Z" fill="white"/>
<path d="M136.399 0.395632H140.94V20.1772H136.399V12.3211H130.155V20.1772H125.614V0.395632H130.155V7.96915H136.399V0.395632Z" fill="white"/>
<path d="M162.657 20.1772L161.664 17.0687H154.284L153.291 20.1772H148.324L155.079 0.395632H160.869L167.624 20.1772H162.657ZM155.647 12.8298H160.301L157.974 5.5671L155.647 12.8298Z" fill="white"/>
<path d="M185.439 20.1772L181.693 13.6775H179.536V20.1772H174.994V0.395632H182.941C184.834 0.395632 186.442 1.05502 187.766 2.37379C189.091 3.69256 189.753 5.29393 189.753 7.17788C189.753 8.38362 189.413 9.50457 188.731 10.5408C188.069 11.5581 187.189 12.3493 186.092 12.9145L190.321 20.1772H185.439ZM179.536 4.63454V9.72123H182.941C183.566 9.72123 184.096 9.47631 184.531 8.98648C184.985 8.49665 185.212 7.89379 185.212 7.17788C185.212 6.46198 184.985 5.85911 184.531 5.36928C184.096 4.87945 183.566 4.63454 182.941 4.63454H179.536Z" fill="white"/>
<path d="M218 0.395632V20.1772H213.459V8.67563L208.322 17.0687H207.811L202.674 8.67563V20.1772H198.133V0.395632H202.674L208.066 9.1843L213.459 0.395632H218Z" fill="white"/>
<path d="M27.3778 2.4536L8.66699 13.0595C7.00926 13.9992 5.98147 15.7656 5.98147 17.6684V39.6309L3.12823 37.9834C1.19356 36.8663 0 34.8017 0 32.5655V15.0267C0 12.7905 1.19356 10.7258 3.12823 9.6087L18.3247 0.839311C20.2613 -0.27977 22.6465 -0.27977 24.5812 0.839311L27.3778 2.4536Z" fill="white"/>
<path d="M35.0361 6.89836L16.4014 17.5002C14.748 18.439 13.7209 20.2073 13.7209 22.1121V44.1297L7.5625 40.5619V17.6759C7.5625 16.3311 8.2861 15.0839 9.45126 14.4204L28.9107 3.3501L35.0361 6.89836Z" fill="white"/>
<path d="M42.8838 14.9854V16.7111C42.8838 17.1464 42.7008 17.5642 42.372 17.8453C42.1443 18.0385 41.8738 18.2298 41.5761 18.3977L24.1449 28.3107C22.74 29.1091 20.9964 29.1091 19.5915 28.3107L15.6083 26.0462C15.4273 25.9427 15.3164 25.7514 15.3164 25.5425V22.0658C15.3164 20.7208 16.0422 19.4734 17.2078 18.8116L36.3281 7.93624H36.332C36.5266 7.82106 36.7659 7.82106 36.9605 7.93428L39.7645 9.55846C41.6968 10.677 42.8857 12.7443 42.8857 14.9834L42.8838 14.9854Z" fill="white"/>
<path d="M42.8857 20.0792V26.4286C42.8857 26.9129 42.6678 27.3697 42.2922 27.6743C42.082 27.8442 41.8387 28.0102 41.578 28.1585L24.1455 38.0732C22.7405 38.8738 20.9968 38.8738 19.5918 38.0732L15.7893 35.9118C15.4974 35.7459 15.3164 35.4335 15.3164 35.0957V28.305C15.3164 28.0297 15.6122 27.8579 15.8496 27.9926L18.8231 29.6834C19.7631 30.2184 20.8159 30.4839 21.8687 30.4839C22.9215 30.4839 23.9743 30.2184 24.9142 29.6834L42.3447 19.7687H42.3486C42.588 19.6301 42.8857 19.8019 42.8857 20.0792Z" fill="white"/>
<path d="M42.3468 29.5319C42.5868 29.3956 42.8852 29.5651 42.8852 29.8416V32.5677C42.8852 34.8012 41.6933 36.8634 39.7561 37.9792L24.555 46.7379C22.6198 47.8557 20.2339 47.8557 18.2967 46.7379L15.2202 44.9659C15.2378 44.9017 15.2475 44.8335 15.2475 44.7634V38.0473C15.2475 37.7728 15.5441 37.6014 15.7821 37.7358L18.763 39.4221C19.7052 39.9556 20.7606 40.2224 21.816 40.2224C22.8715 40.2224 23.9269 39.9556 24.8691 39.4221L42.3429 29.5339C42.3429 29.5339 42.3449 29.5339 42.3468 29.5319Z" fill="white"/>
<path d="M68.5516 34.4552C68.4817 33.7518 68.1711 33.1924 67.6199 32.7769C67.0687 32.3614 66.3755 32.1537 65.5404 32.1537C64.9522 32.1537 64.4339 32.2544 63.9855 32.456C63.5412 32.6576 63.1915 32.9373 62.9365 33.2952C62.6856 33.649 62.5601 34.0521 62.5601 34.5046C62.5601 34.8378 62.6321 35.1299 62.7761 35.3808C62.92 35.6317 63.1134 35.8477 63.3561 36.0287C63.6029 36.2056 63.8744 36.3578 64.1706 36.4853C64.4709 36.6129 64.7732 36.7198 65.0776 36.8062L66.4105 37.1888C66.8136 37.2998 67.2167 37.4418 67.6199 37.6145C68.023 37.7873 68.3912 38.0053 68.7244 38.2686C69.0617 38.5278 69.3312 38.8466 69.5327 39.225C69.7384 39.5994 69.8413 40.0498 69.8413 40.5764C69.8413 41.251 69.6664 41.8578 69.3168 42.3967C68.9671 42.9355 68.4652 43.3634 67.8112 43.6801C67.1571 43.9928 66.3734 44.1491 65.4602 44.1491C64.6005 44.1491 63.8538 44.0072 63.2203 43.7233C62.5868 43.4354 62.0891 43.0384 61.7271 42.5324C61.3651 42.0264 61.1614 41.4402 61.1162 40.7738H62.3009C62.3421 41.2716 62.5066 41.6932 62.7946 42.0388C63.0825 42.3843 63.4569 42.6476 63.9176 42.8286C64.3783 43.0055 64.8925 43.0939 65.4602 43.0939C66.0896 43.0939 66.6491 42.989 67.1386 42.7792C67.6322 42.5653 68.0189 42.2691 68.2986 41.8907C68.5825 41.5081 68.7244 41.0638 68.7244 40.5579C68.7244 40.13 68.6133 39.7721 68.3912 39.4842C68.1691 39.1921 67.8585 38.9474 67.4595 38.7499C67.0645 38.5524 66.6059 38.3776 66.0834 38.2254L64.5717 37.7811C63.5803 37.485 62.811 37.0756 62.2639 36.5532C61.7168 36.0308 61.4432 35.3644 61.4432 34.554C61.4432 33.8752 61.6242 33.2787 61.9862 32.7645C62.3524 32.2462 62.846 31.8431 63.4672 31.5551C64.0924 31.263 64.7938 31.117 65.5713 31.117C66.357 31.117 67.0522 31.261 67.6569 31.5489C68.2616 31.8369 68.7409 32.2339 69.0946 32.7399C69.4525 33.2417 69.6438 33.8135 69.6685 34.4552H68.5516ZM84.7997 43.9331H83.5903L88.1873 31.296H89.4214L94.0184 43.9331H92.809L88.8476 32.7954H88.7612L84.7997 43.9331ZM85.6698 39.0893H91.939V40.1259H85.6698V39.0893ZM108.348 43.9331V31.296H109.501V42.8965H115.524V43.9331H108.348ZM130.285 43.9331V31.296H137.615V32.3326H131.439V37.09H137.227V38.1267H131.439V42.8965H137.739V43.9331H130.285ZM159.627 34.4552C159.557 33.7518 159.246 33.1924 158.695 32.7769C158.144 32.3614 157.451 32.1537 156.616 32.1537C156.027 32.1537 155.509 32.2544 155.061 32.456C154.616 32.6576 154.267 32.9373 154.012 33.2952C153.761 33.649 153.635 34.0521 153.635 34.5046C153.635 34.8378 153.707 35.1299 153.851 35.3808C153.995 35.6317 154.188 35.8477 154.431 36.0287C154.678 36.2056 154.949 36.3578 155.246 36.4853C155.546 36.6129 155.848 36.7198 156.153 36.8062L157.486 37.1888C157.889 37.2998 158.292 37.4418 158.695 37.6145C159.098 37.7873 159.466 38.0053 159.799 38.2686C160.137 38.5278 160.406 38.8466 160.608 39.225C160.814 39.5994 160.916 40.0498 160.916 40.5764C160.916 41.251 160.742 41.8578 160.392 42.3967C160.042 42.9355 159.54 43.3634 158.886 43.6801C158.232 43.9928 157.449 44.1491 156.535 44.1491C155.676 44.1491 154.929 44.0072 154.295 43.7233C153.662 43.4354 153.164 43.0384 152.802 42.5324C152.44 42.0264 152.237 41.4402 152.191 40.7738H153.376C153.417 41.2716 153.582 41.6932 153.87 42.0388C154.158 42.3843 154.532 42.6476 154.993 42.8286C155.453 43.0055 155.968 43.0939 156.535 43.0939C157.165 43.0939 157.724 42.989 158.214 42.7792C158.707 42.5653 159.094 42.2691 159.374 41.8907C159.658 41.5081 159.799 41.0638 159.799 40.5579C159.799 40.13 159.688 39.7721 159.466 39.4842C159.244 39.1921 158.934 38.9474 158.535 38.7499C158.14 38.5524 157.681 38.3776 157.159 38.2254L155.647 37.7811C154.655 37.485 153.886 37.0756 153.339 36.5532C152.792 36.0308 152.518 35.3644 152.518 34.554C152.518 33.8752 152.699 33.2787 153.061 32.7645C153.427 32.2462 153.921 31.8431 154.542 31.5551C155.168 31.263 155.869 31.117 156.646 31.117C157.432 31.117 158.127 31.261 158.732 31.5489C159.337 31.8369 159.816 32.2339 160.17 32.7399C160.528 33.2417 160.719 33.8135 160.744 34.4552H159.627Z" fill="white"/>
</svg>
