<svg width="218" height="48" viewBox="0 0 218 48" fill="none" xmlns="http://www.w3.org/2000/svg">
<path d="M73.8462 20.1772L72.8528 17.0687H65.4734L64.4801 20.1772H59.5132L66.2682 0.395632H72.0581L78.8131 20.1772H73.8462ZM66.8358 12.8298H71.4905L69.1631 5.5671L66.8358 12.8298Z" fill="white"/>
<path d="M86.1836 0.395632H90.7247V20.1772H86.1836V0.395632Z" fill="white"/>
<path d="M109.294 20.5728C106.324 20.5728 103.855 19.5932 101.887 17.6339C99.9378 15.6557 98.9634 13.2066 98.9634 10.2864C98.9634 7.36628 99.9378 4.92655 101.887 2.96724C103.855 0.989079 106.324 0 109.294 0C111.073 0 112.719 0.414471 114.233 1.24341C115.747 2.05352 116.939 3.16505 117.809 4.57802L113.892 6.83877C113.457 6.06635 112.833 5.4729 112.019 5.05843C111.206 4.62512 110.297 4.40846 109.294 4.40846C107.535 4.40846 106.125 4.94539 105.066 6.01925C104.025 7.0931 103.505 8.51549 103.505 10.2864C103.505 12.0573 104.025 13.4797 105.066 14.5536C106.125 15.6274 107.535 16.1644 109.294 16.1644C110.297 16.1644 111.206 15.9477 112.019 15.5144C112.852 15.0811 113.476 14.4876 113.892 13.7341L117.809 15.9948C116.958 17.4078 115.775 18.5287 114.261 19.3577C112.748 20.1678 111.092 20.5728 109.294 20.5728Z" fill="white"/>
<path d="M136.399 0.395632H140.94V20.1772H136.399V12.3211H130.155V20.1772H125.614V0.395632H130.155V7.96915H136.399V0.395632Z" fill="white"/>
<path d="M162.657 20.1772L161.664 17.0687H154.284L153.291 20.1772H148.324L155.079 0.395632H160.869L167.624 20.1772H162.657ZM155.647 12.8298H160.301L157.974 5.5671L155.647 12.8298Z" fill="white"/>
<path d="M185.439 20.1772L181.693 13.6775H179.536V20.1772H174.994V0.395632H182.941C184.834 0.395632 186.442 1.05502 187.766 2.37379C189.091 3.69256 189.753 5.29393 189.753 7.17788C189.753 8.38362 189.413 9.50457 188.731 10.5408C188.069 11.5581 187.189 12.3493 186.092 12.9145L190.321 20.1772H185.439ZM179.536 4.63454V9.72123H182.941C183.566 9.72123 184.096 9.47631 184.531 8.98648C184.985 8.49665 185.212 7.89379 185.212 7.17788C185.212 6.46198 184.985 5.85911 184.531 5.36928C184.096 4.87945 183.566 4.63454 182.941 4.63454H179.536Z" fill="white"/>
<path d="M218 0.395632V20.1772H213.459V8.67563L208.322 17.0687H207.811L202.674 8.67563V20.1772H198.133V0.395632H202.674L208.066 9.1843L213.459 0.395632H218Z" fill="white"/>
<path d="M27.3778 2.45359L8.66699 13.0595C7.00926 13.9992 5.98147 15.7656 5.98147 17.6684V39.6309L3.12823 37.9834C1.19356 36.8663 0 34.8017 0 32.5655V15.0267C0 12.7905 1.19356 10.7258 3.12823 9.6087L18.3247 0.839311C20.2613 -0.27977 22.6465 -0.27977 24.5812 0.839311L27.3778 2.45359Z" fill="white"/>
<path d="M35.0361 6.89851L16.4014 17.5003C14.748 18.4391 13.7209 20.2074 13.7209 22.1123V44.1299L7.5625 40.5621V17.676C7.5625 16.3313 8.2861 15.0841 9.45126 14.4205L28.9107 3.35025L35.0361 6.89851Z" fill="white"/>
<path d="M42.8838 14.9855V16.7111C42.8838 17.1465 42.7008 17.5642 42.372 17.8453C42.1443 18.0386 41.8738 18.2299 41.5761 18.3978L24.1449 28.3107C22.74 29.1092 20.9964 29.1092 19.5915 28.3107L15.6083 26.0463C15.4273 25.9428 15.3164 25.7515 15.3164 25.5426V22.0659C15.3164 20.7208 16.0422 19.4734 17.2078 18.8116L36.3281 7.9363H36.332C36.5266 7.82112 36.7659 7.82112 36.9605 7.93435L39.7645 9.55852C41.6968 10.6771 42.8857 12.7444 42.8857 14.9835L42.8838 14.9855Z" fill="white"/>
<path d="M42.8857 20.0791V26.4286C42.8857 26.9128 42.6678 27.3697 42.2922 27.6743C42.082 27.8441 41.8387 28.0101 41.578 28.1585L24.1455 38.0732C22.7405 38.8737 20.9968 38.8737 19.5918 38.0732L15.7893 35.9118C15.4974 35.7458 15.3164 35.4334 15.3164 35.0956V28.3049C15.3164 28.0296 15.6122 27.8578 15.8496 27.9925L18.8231 29.6834C19.7631 30.2183 20.8159 30.4839 21.8687 30.4839C22.9215 30.4839 23.9743 30.2183 24.9142 29.6834L42.3447 19.7687H42.3486C42.588 19.63 42.8857 19.8019 42.8857 20.0791Z" fill="white"/>
<path d="M42.3468 29.5319C42.5868 29.3956 42.8852 29.565 42.8852 29.8415V32.5677C42.8852 34.8012 41.6933 36.8633 39.7561 37.9791L24.555 46.7379C22.6198 47.8556 20.2339 47.8556 18.2967 46.7379L15.2202 44.9659C15.2378 44.9016 15.2475 44.8335 15.2475 44.7634V38.0473C15.2475 37.7727 15.5441 37.6013 15.7821 37.7357L18.763 39.422C19.7052 39.9556 20.7606 40.2224 21.816 40.2224C22.8715 40.2224 23.9269 39.9556 24.8691 39.422L42.3429 29.5338C42.3429 29.5338 42.3449 29.5338 42.3468 29.5319Z" fill="white"/>
<path d="M68.5516 34.4551C68.4817 33.7516 68.1711 33.1922 67.6199 32.7767C67.0687 32.3612 66.3755 32.1535 65.5404 32.1535C64.9522 32.1535 64.4339 32.2543 63.9855 32.4558C63.5412 32.6574 63.1915 32.9371 62.9365 33.295C62.6856 33.6488 62.5601 34.0519 62.5601 34.5044C62.5601 34.8376 62.6321 35.1297 62.7761 35.3806C62.92 35.6316 63.1134 35.8475 63.3561 36.0285C63.6029 36.2054 63.8744 36.3576 64.1706 36.4851C64.4709 36.6127 64.7732 36.7196 65.0776 36.806L66.4105 37.1886C66.8136 37.2997 67.2167 37.4416 67.6199 37.6143C68.023 37.7871 68.3912 38.0051 68.7244 38.2684C69.0617 38.5276 69.3312 38.8464 69.5327 39.2248C69.7384 39.5992 69.8413 40.0496 69.8413 40.5762C69.8413 41.2508 69.6664 41.8576 69.3168 42.3965C68.9671 42.9354 68.4652 43.3632 67.8112 43.6799C67.1571 43.9926 66.3734 44.1489 65.4602 44.1489C64.6005 44.1489 63.8538 44.007 63.2203 43.7231C62.5868 43.4352 62.0891 43.0382 61.7271 42.5322C61.3651 42.0262 61.1614 41.44 61.1162 40.7736H62.3009C62.3421 41.2714 62.5066 41.693 62.7946 42.0386C63.0825 42.3841 63.4569 42.6474 63.9176 42.8284C64.3783 43.0053 64.8925 43.0937 65.4602 43.0937C66.0896 43.0937 66.6491 42.9888 67.1386 42.779C67.6322 42.5651 68.0189 42.2689 68.2986 41.8905C68.5825 41.5079 68.7244 41.0636 68.7244 40.5577C68.7244 40.1298 68.6133 39.772 68.3912 39.484C68.1691 39.1919 67.8585 38.9472 67.4595 38.7497C67.0645 38.5523 66.6059 38.3774 66.0834 38.2252L64.5717 37.781C63.5803 37.4848 62.811 37.0755 62.2639 36.553C61.7168 36.0306 61.4432 35.3642 61.4432 34.5538C61.4432 33.875 61.6242 33.2786 61.9862 32.7643C62.3524 32.246 62.846 31.8429 63.4672 31.5549C64.0924 31.2629 64.7938 31.1168 65.5713 31.1168C66.357 31.1168 67.0522 31.2608 67.6569 31.5488C68.2616 31.8367 68.7409 32.2337 69.0946 32.7397C69.4525 33.2415 69.6438 33.8133 69.6685 34.4551H68.5516ZM84.7997 43.9329H83.5903L88.1873 31.2958H89.4214L94.0184 43.9329H92.809L88.8476 32.7952H88.7612L84.7997 43.9329ZM85.6698 39.0891H91.939V40.1257H85.6698V39.0891ZM108.348 43.9329V31.2958H109.501V42.8963H115.524V43.9329H108.348ZM130.285 43.9329V31.2958H137.615V32.3324H131.439V37.0899H137.227V38.1265H131.439V42.8963H137.739V43.9329H130.285ZM159.627 34.4551C159.557 33.7516 159.246 33.1922 158.695 32.7767C158.144 32.3612 157.451 32.1535 156.616 32.1535C156.027 32.1535 155.509 32.2543 155.061 32.4558C154.616 32.6574 154.267 32.9371 154.012 33.295C153.761 33.6488 153.635 34.0519 153.635 34.5044C153.635 34.8376 153.707 35.1297 153.851 35.3806C153.995 35.6316 154.188 35.8475 154.431 36.0285C154.678 36.2054 154.949 36.3576 155.246 36.4851C155.546 36.6127 155.848 36.7196 156.153 36.806L157.486 37.1886C157.889 37.2997 158.292 37.4416 158.695 37.6143C159.098 37.7871 159.466 38.0051 159.799 38.2684C160.137 38.5276 160.406 38.8464 160.608 39.2248C160.814 39.5992 160.916 40.0496 160.916 40.5762C160.916 41.2508 160.742 41.8576 160.392 42.3965C160.042 42.9354 159.54 43.3632 158.886 43.6799C158.232 43.9926 157.449 44.1489 156.535 44.1489C155.676 44.1489 154.929 44.007 154.295 43.7231C153.662 43.4352 153.164 43.0382 152.802 42.5322C152.44 42.0262 152.237 41.44 152.191 40.7736H153.376C153.417 41.2714 153.582 41.693 153.87 42.0386C154.158 42.3841 154.532 42.6474 154.993 42.8284C155.453 43.0053 155.968 43.0937 156.535 43.0937C157.165 43.0937 157.724 42.9888 158.214 42.779C158.707 42.5651 159.094 42.2689 159.374 41.8905C159.658 41.5079 159.799 41.0636 159.799 40.5577C159.799 40.1298 159.688 39.772 159.466 39.484C159.244 39.1919 158.934 38.9472 158.535 38.7497C158.14 38.5523 157.681 38.3774 157.159 38.2252L155.647 37.781C154.655 37.4848 153.886 37.0755 153.339 36.553C152.792 36.0306 152.518 35.3642 152.518 34.5538C152.518 33.875 152.699 33.2786 153.061 32.7643C153.427 32.246 153.921 31.8429 154.542 31.5549C155.168 31.2629 155.869 31.1168 156.646 31.1168C157.432 31.1168 158.127 31.2608 158.732 31.5488C159.337 31.8367 159.816 32.2337 160.17 32.7397C160.528 33.2415 160.719 33.8133 160.744 34.4551H159.627Z" fill="white"/>
</svg>
