<svg width="503" height="87" viewBox="0 0 503 87" fill="none" xmlns="http://www.w3.org/2000/svg">
<path opacity="0.5" d="M91.4498 83V72.0837H92.4466V82.1045H97.6489V83H91.4498ZM102.878 83.1706C102.171 83.1706 101.545 82.9911 101.002 82.6322C100.461 82.2733 100.039 81.7776 99.733 81.1451C99.4274 80.509 99.2746 79.7752 99.2746 78.9437C99.2746 78.1051 99.4274 77.3677 99.733 76.7316C100.039 76.092 100.461 75.5945 101.002 75.2392C101.545 74.8803 102.171 74.7008 102.878 74.7008C103.585 74.7008 104.209 74.8803 104.749 75.2392C105.289 75.5981 105.712 76.0956 106.017 76.7316C106.327 77.3677 106.481 78.1051 106.481 78.9437C106.481 79.7752 106.328 80.509 106.023 81.1451C105.717 81.7776 105.292 82.2733 104.749 82.6322C104.209 82.9911 103.585 83.1706 102.878 83.1706ZM102.878 82.3017C103.446 82.3017 103.928 82.1489 104.322 81.8433C104.717 81.5377 105.015 81.1309 105.218 80.6227C105.424 80.1146 105.527 79.5549 105.527 78.9437C105.527 78.3325 105.424 77.771 105.218 77.2593C105.015 76.7476 104.717 76.3372 104.322 76.028C103.928 75.7189 103.446 75.5643 102.878 75.5643C102.313 75.5643 101.831 75.7189 101.433 76.028C101.039 76.3372 100.739 76.7476 100.533 77.2593C100.33 77.771 100.229 78.3325 100.229 78.9437C100.229 79.5549 100.33 80.1146 100.533 80.6227C100.739 81.1309 101.039 81.5377 101.433 81.8433C101.828 82.1489 102.309 82.3017 102.878 82.3017ZM110.103 83L107.63 74.8128H108.632L110.572 81.5662H110.641L112.576 74.8128H113.584L115.503 81.5502H115.577L117.517 74.8128H118.519L116.046 83H115.065L113.125 76.2892H113.024L111.084 83H110.103Z" fill="black"/>
<path opacity="0.5" d="M175.45 72.0837H176.601L180.562 81.5928H180.657L184.618 72.0837H185.769V83H184.831V74.1891H184.746L181.063 83H180.156L176.473 74.1891H176.388V83H175.45V72.0837ZM191.784 83.1706C191.02 83.1706 190.359 82.9929 189.801 82.6375C189.244 82.2786 188.812 81.7829 188.506 81.1504C188.204 80.5143 188.053 79.7823 188.053 78.9543C188.053 78.1299 188.204 77.3979 188.506 76.7583C188.812 76.1151 189.233 75.6123 189.77 75.2498C190.31 74.8838 190.933 74.7008 191.64 74.7008C192.085 74.7008 192.513 74.7825 192.925 74.946C193.337 75.1059 193.707 75.3529 194.034 75.6869C194.364 76.0174 194.625 76.4349 194.817 76.9395C195.009 77.4406 195.105 78.034 195.105 78.7198V79.1889H188.709V78.352H194.135C194.135 77.8261 194.028 77.3535 193.815 76.9342C193.606 76.5113 193.312 76.1773 192.936 75.9321C192.563 75.6869 192.131 75.5643 191.64 75.5643C191.122 75.5643 190.665 75.7029 190.271 75.9801C189.876 76.2572 189.567 76.6233 189.343 77.0781C189.123 77.533 189.011 78.0304 189.007 78.5706V79.0716C189.007 79.7219 189.119 80.2905 189.343 80.7773C189.571 81.2606 189.892 81.6355 190.308 81.902C190.724 82.1685 191.216 82.3017 191.784 82.3017C192.172 82.3017 192.511 82.2413 192.802 82.1205C193.097 81.9997 193.344 81.838 193.543 81.6355C193.746 81.4294 193.899 81.2037 194.002 80.9585L194.903 81.2517C194.778 81.5964 194.574 81.9144 194.29 82.2058C194.009 82.4972 193.657 82.7317 193.234 82.9094C192.815 83.0835 192.332 83.1706 191.784 83.1706ZM200.143 83.1706C199.472 83.1706 198.884 82.9929 198.379 82.6375C197.875 82.2822 197.48 81.7865 197.196 81.1504C196.915 80.5143 196.775 79.7734 196.775 78.9277C196.775 78.0855 196.915 77.3482 197.196 76.7156C197.48 76.0796 197.876 75.5856 198.385 75.2338C198.893 74.8785 199.484 74.7008 200.159 74.7008C200.657 74.7008 201.071 74.7897 201.401 74.9673C201.732 75.1415 201.997 75.3582 202.196 75.6176C202.395 75.877 202.549 76.1293 202.659 76.3745H202.745V72.0837H203.699V83H202.771V81.4809H202.659C202.549 81.7296 202.393 81.9855 202.19 82.2484C201.988 82.5078 201.719 82.7264 201.385 82.9041C201.055 83.0817 200.641 83.1706 200.143 83.1706ZM200.255 82.3017C200.785 82.3017 201.236 82.1578 201.609 81.87C201.982 81.5786 202.267 81.1788 202.462 80.6707C202.661 80.159 202.761 79.5727 202.761 78.9117C202.761 78.2579 202.663 77.6804 202.467 77.1794C202.272 76.6748 201.988 76.2803 201.615 75.9961C201.242 75.7082 200.788 75.5643 200.255 75.5643C199.708 75.5643 199.246 75.7136 198.87 76.0121C198.496 76.307 198.212 76.7068 198.017 77.2114C197.825 77.716 197.729 78.2827 197.729 78.9117C197.729 79.5478 197.827 80.1217 198.022 80.6334C198.217 81.1451 198.502 81.552 198.875 81.854C199.252 82.1525 199.712 82.3017 200.255 82.3017ZM206.412 83V74.8128H207.366V83H206.412ZM206.897 73.4056C206.701 73.4056 206.534 73.3398 206.396 73.2084C206.257 73.0733 206.188 72.9116 206.188 72.7233C206.188 72.535 206.257 72.3751 206.396 72.2436C206.534 72.1085 206.701 72.041 206.897 72.041C207.092 72.041 207.259 72.1085 207.398 72.2436C207.537 72.3751 207.606 72.535 207.606 72.7233C207.606 72.9116 207.537 73.0733 207.398 73.2084C207.259 73.3398 207.092 73.4056 206.897 73.4056ZM215.077 79.8712V74.8128H216.026V83H215.077V81.6408H215.003C214.811 82.0601 214.507 82.4101 214.091 82.6908C213.676 82.968 213.167 83.1066 212.567 83.1066C212.045 83.1066 211.581 82.9929 211.176 82.7655C210.771 82.5345 210.453 82.1969 210.222 81.7527C209.991 81.3085 209.875 80.7631 209.875 80.1163V74.8128H210.824V80.0577C210.824 80.6973 211.012 81.2126 211.389 81.6035C211.766 81.9908 212.249 82.1845 212.839 82.1845C213.208 82.1845 213.564 82.0956 213.905 81.918C214.246 81.7403 214.527 81.4809 214.747 81.1397C214.967 80.7951 215.077 80.3722 215.077 79.8712ZM218.538 83V74.8128H219.46V76.0707H219.546C219.709 75.6478 219.981 75.3156 220.361 75.0739C220.745 74.8287 221.205 74.7062 221.742 74.7062C222.307 74.7062 222.77 74.8394 223.133 75.1059C223.499 75.3689 223.772 75.7313 223.954 76.1933H224.023C224.208 75.7384 224.508 75.3778 224.924 75.1112C225.343 74.8412 225.851 74.7062 226.448 74.7062C227.209 74.7062 227.809 74.946 228.25 75.4257C228.69 75.9019 228.911 76.5984 228.911 77.5152V83H227.962V77.5152C227.962 76.8684 227.797 76.3834 227.466 76.06C227.136 75.7367 226.701 75.575 226.16 75.575C225.535 75.575 225.053 75.7669 224.716 76.1506C224.378 76.5344 224.21 77.0212 224.21 77.6111V83H223.239V77.4299C223.239 76.8756 223.085 76.4278 222.776 76.0867C222.467 75.7455 222.031 75.575 221.47 75.575C221.093 75.575 220.754 75.6674 220.452 75.8522C220.153 76.0369 219.917 76.2946 219.743 76.625C219.572 76.952 219.487 77.3286 219.487 77.755V83H218.538Z" fill="black"/>
<path opacity="0.5" d="M285.45 83V72.0837H286.447V77.0888H292.64V72.0837H293.637V83H292.64V77.9842H286.447V83H285.45ZM296.345 83V74.8128H297.299V83H296.345ZM296.83 73.4056C296.634 73.4056 296.467 73.3398 296.329 73.2084C296.19 73.0733 296.121 72.9116 296.121 72.7233C296.121 72.535 296.19 72.3751 296.329 72.2436C296.467 72.1085 296.634 72.041 296.83 72.041C297.025 72.041 297.192 72.1085 297.331 72.2436C297.47 72.3751 297.539 72.535 297.539 72.7233C297.539 72.9116 297.47 73.0733 297.331 73.2084C297.192 73.3398 297.025 73.4056 296.83 73.4056ZM302.932 86.2408C302.374 86.2408 301.885 86.1679 301.466 86.0222C301.047 85.8801 300.693 85.6847 300.405 85.4359C300.117 85.1872 299.893 84.9082 299.734 84.5991L300.512 84.0874C300.629 84.2935 300.785 84.496 300.981 84.695C301.18 84.894 301.437 85.0592 301.754 85.1907C302.074 85.3222 302.466 85.3879 302.932 85.3879C303.657 85.3879 304.241 85.2067 304.685 84.8443C305.133 84.4818 305.357 83.9186 305.357 83.1546V81.3103H305.272C305.161 81.5591 305.003 81.8078 304.797 82.0565C304.591 82.3017 304.321 82.5061 303.987 82.6695C303.657 82.833 303.246 82.9147 302.756 82.9147C302.102 82.9147 301.521 82.753 301.013 82.4297C300.508 82.1063 300.11 81.6443 299.819 81.0438C299.531 80.4397 299.387 79.7201 299.387 78.8851C299.387 78.0571 299.527 77.3286 299.808 76.6997C300.092 76.0707 300.489 75.5803 300.997 75.2285C301.505 74.8767 302.097 74.7008 302.772 74.7008C303.273 74.7008 303.689 74.7897 304.019 74.9673C304.35 75.1415 304.614 75.3582 304.813 75.6176C305.016 75.877 305.174 76.1293 305.288 76.3745H305.384V74.8128H306.311V83.2132C306.311 83.9061 306.164 84.4765 305.869 84.9242C305.574 85.372 305.172 85.7024 304.664 85.9156C304.156 86.1324 303.578 86.2408 302.932 86.2408ZM302.868 82.0459C303.394 82.0459 303.843 81.9197 304.216 81.6674C304.589 81.4116 304.875 81.0456 305.074 80.5694C305.273 80.0932 305.373 79.5265 305.373 78.8691C305.373 78.2294 305.275 77.6627 305.08 77.1687C304.884 76.6712 304.6 76.2803 304.227 75.9961C303.857 75.7082 303.404 75.5643 302.868 75.5643C302.32 75.5643 301.859 75.7118 301.482 76.0067C301.105 76.3017 300.821 76.6997 300.629 77.2007C300.437 77.6982 300.341 78.2543 300.341 78.8691C300.341 79.4945 300.439 80.047 300.634 80.5268C300.83 81.0029 301.116 81.3761 301.493 81.6461C301.869 81.9126 302.328 82.0459 302.868 82.0459ZM309.772 77.883V83H308.823V72.0837H309.772V76.0973H309.857C310.049 75.6745 310.346 75.3369 310.747 75.0846C311.152 74.8323 311.664 74.7062 312.282 74.7062C312.837 74.7062 313.323 74.8199 313.743 75.0473C314.162 75.2747 314.489 75.6105 314.723 76.0547C314.958 76.4989 315.075 77.0461 315.075 77.6964V83H314.121V77.755C314.121 77.0799 313.933 76.5486 313.556 76.1613C313.183 75.7704 312.678 75.575 312.042 75.575C311.605 75.575 311.216 75.6674 310.875 75.8522C310.534 76.0369 310.264 76.3034 310.065 76.6517C309.869 76.9964 309.772 77.4068 309.772 77.883Z" fill="black"/>
<path opacity="0.5" d="M366.466 72.0837L369.877 81.7048H369.973L373.384 72.0837H374.429L370.458 83H369.392L365.421 72.0837H366.466ZM378.651 83.1706C377.887 83.1706 377.226 82.9929 376.668 82.6375C376.11 82.2786 375.678 81.7829 375.373 81.1504C375.071 80.5143 374.92 79.7823 374.92 78.9543C374.92 78.1299 375.071 77.3979 375.373 76.7583C375.678 76.1151 376.099 75.6123 376.636 75.2498C377.176 74.8838 377.8 74.7008 378.507 74.7008C378.951 74.7008 379.379 74.7825 379.791 74.946C380.204 75.1059 380.573 75.3529 380.9 75.6869C381.231 76.0174 381.492 76.4349 381.684 76.9395C381.876 77.4406 381.971 78.034 381.971 78.7198V79.1889H375.575V78.352H381.001C381.001 77.8261 380.895 77.3535 380.682 76.9342C380.472 76.5113 380.179 76.1773 379.802 75.9321C379.429 75.6869 378.997 75.5643 378.507 75.5643C377.988 75.5643 377.531 75.7029 377.137 75.9801C376.743 76.2572 376.433 76.6233 376.209 77.0781C375.989 77.533 375.877 78.0304 375.874 78.5706V79.0716C375.874 79.7219 375.986 80.2905 376.209 80.7773C376.437 81.2606 376.759 81.6355 377.174 81.902C377.59 82.1685 378.082 82.3017 378.651 82.3017C379.038 82.3017 379.377 82.2413 379.669 82.1205C379.964 81.9997 380.211 81.838 380.41 81.6355C380.612 81.4294 380.765 81.2037 380.868 80.9585L381.769 81.2517C381.645 81.5964 381.44 81.9144 381.156 82.2058C380.875 82.4972 380.523 82.7317 380.101 82.9094C379.681 83.0835 379.198 83.1706 378.651 83.1706ZM384.062 83V74.8128H384.984V76.0707H385.054C385.217 75.6585 385.501 75.3262 385.907 75.0739C386.315 74.8181 386.777 74.6902 387.292 74.6902C387.371 74.6902 387.458 74.6919 387.554 74.6955C387.65 74.699 387.729 74.7026 387.793 74.7062V75.6709C387.751 75.6638 387.676 75.6532 387.57 75.6389C387.463 75.6247 387.347 75.6176 387.223 75.6176C386.797 75.6176 386.416 75.7082 386.082 75.8895C385.752 76.0671 385.491 76.3141 385.299 76.6304C385.107 76.9466 385.011 77.3073 385.011 77.7124V83H384.062ZM390.323 86.0702C390.134 86.0702 389.958 86.0524 389.795 86.0169C389.631 85.9814 389.502 85.9423 389.406 85.8996L389.662 85.0628C389.985 85.1623 390.273 85.1978 390.525 85.1694C390.777 85.1445 391.001 85.0308 391.197 84.8283C391.392 84.6293 391.566 84.3237 391.719 83.9115L392.018 83.08L389.006 74.8128H390.035L392.465 81.7474H392.54L394.971 74.8128H395.999L392.535 84.2952C392.389 84.6897 392.21 85.0184 391.996 85.2813C391.783 85.5479 391.536 85.7451 391.255 85.873C390.978 86.0045 390.667 86.0702 390.323 86.0702ZM403.026 77.883V83H402.077V72.0837H403.026V76.0973H403.111C403.303 75.6745 403.6 75.3369 404.001 75.0846C404.406 74.8323 404.918 74.7062 405.536 74.7062C406.091 74.7062 406.578 74.8199 406.997 75.0473C407.416 75.2747 407.743 75.6105 407.978 76.0547C408.212 76.4989 408.33 77.0461 408.33 77.6964V83H407.375V77.755C407.375 77.0799 407.187 76.5486 406.81 76.1613C406.437 75.7704 405.933 75.575 405.297 75.575C404.86 75.575 404.47 75.6674 404.129 75.8522C403.788 76.0369 403.518 76.3034 403.319 76.6517C403.124 76.9964 403.026 77.4068 403.026 77.883ZM410.839 83V74.8128H411.793V83H410.839ZM411.324 73.4056C411.128 73.4056 410.961 73.3398 410.823 73.2084C410.684 73.0733 410.615 72.9116 410.615 72.7233C410.615 72.535 410.684 72.3751 410.823 72.2436C410.961 72.1085 411.128 72.041 411.324 72.041C411.519 72.041 411.686 72.1085 411.825 72.2436C411.963 72.3751 412.033 72.535 412.033 72.7233C412.033 72.9116 411.963 73.0733 411.825 73.2084C411.686 73.3398 411.519 73.4056 411.324 73.4056ZM417.426 86.2408C416.868 86.2408 416.379 86.1679 415.96 86.0222C415.54 85.8801 415.187 85.6847 414.899 85.4359C414.611 85.1872 414.387 84.9082 414.227 84.5991L415.006 84.0874C415.123 84.2935 415.279 84.496 415.475 84.695C415.674 84.894 415.931 85.0592 416.248 85.1907C416.567 85.3222 416.96 85.3879 417.426 85.3879C418.15 85.3879 418.735 85.2067 419.179 84.8443C419.627 84.4818 419.851 83.9186 419.851 83.1546V81.3103H419.766C419.655 81.5591 419.497 81.8078 419.291 82.0565C419.085 82.3017 418.815 82.5061 418.481 82.6695C418.15 82.833 417.74 82.9147 417.25 82.9147C416.596 82.9147 416.015 82.753 415.507 82.4297C415.002 82.1063 414.604 81.6443 414.313 81.0438C414.025 80.4397 413.881 79.7201 413.881 78.8851C413.881 78.0571 414.021 77.3286 414.302 76.6997C414.586 76.0707 414.983 75.5803 415.491 75.2285C415.999 74.8767 416.59 74.7008 417.266 74.7008C417.767 74.7008 418.182 74.7897 418.513 74.9673C418.843 75.1415 419.108 75.3582 419.307 75.6176C419.51 75.877 419.668 76.1293 419.782 76.3745H419.877V74.8128H420.805V83.2132C420.805 83.9061 420.657 84.4765 420.363 84.9242C420.068 85.372 419.666 85.7024 419.158 85.9156C418.65 86.1324 418.072 86.2408 417.426 86.2408ZM417.362 82.0459C417.888 82.0459 418.337 81.9197 418.71 81.6674C419.083 81.4116 419.369 81.0456 419.568 80.5694C419.767 80.0932 419.867 79.5265 419.867 78.8691C419.867 78.2294 419.769 77.6627 419.574 77.1687C419.378 76.6712 419.094 76.2803 418.721 75.9961C418.351 75.7082 417.898 75.5643 417.362 75.5643C416.814 75.5643 416.352 75.7118 415.976 76.0067C415.599 76.3017 415.315 76.6997 415.123 77.2007C414.931 77.6982 414.835 78.2543 414.835 78.8691C414.835 79.4945 414.933 80.047 415.128 80.5268C415.324 81.0029 415.61 81.3761 415.986 81.6461C416.363 81.9126 416.821 82.0459 417.362 82.0459ZM424.266 77.883V83H423.317V72.0837H424.266V76.0973H424.351C424.543 75.6745 424.839 75.3369 425.241 75.0846C425.646 74.8323 426.158 74.7062 426.776 74.7062C427.33 74.7062 427.817 74.8199 428.237 75.0473C428.656 75.2747 428.983 75.6105 429.217 76.0547C429.452 76.4989 429.569 77.0461 429.569 77.6964V83H428.615V77.755C428.615 77.0799 428.427 76.5486 428.05 76.1613C427.677 75.7704 427.172 75.575 426.536 75.575C426.099 75.575 425.71 75.6674 425.369 75.8522C425.028 76.0369 424.758 76.3034 424.559 76.6517C424.363 76.9964 424.266 77.4068 424.266 77.883Z" fill="black"/>
<path d="M364.975 22L371.763 8.5678V8.45587H363.856V5.62551H375.345V8.49584L368.549 22H364.975ZM383.496 22.2239C382.265 22.2239 381.169 22.024 380.21 21.6242C379.256 21.2191 378.507 20.6674 377.963 19.9692C377.42 19.2709 377.148 18.4794 377.148 17.5946C377.148 16.9123 377.302 16.286 377.612 15.7156C377.926 15.14 378.352 14.6629 378.891 14.2845C379.429 13.9007 380.031 13.6555 380.698 13.5489V13.437C379.824 13.2611 379.115 12.8373 378.571 12.1657C378.027 11.4888 377.755 10.7026 377.755 9.80708C377.755 8.95957 378.003 8.20534 378.499 7.54439C378.995 6.87811 379.674 6.35575 380.538 5.9773C381.407 5.59353 382.393 5.40164 383.496 5.40164C384.599 5.40164 385.583 5.59353 386.446 5.9773C387.315 6.36108 387.997 6.88611 388.493 7.55239C388.989 8.21334 389.239 8.9649 389.245 9.80708C389.239 10.7079 388.962 11.4941 388.413 12.1657C387.864 12.8373 387.161 13.2611 386.302 13.437V13.5489C386.958 13.6555 387.552 13.9007 388.085 14.2845C388.624 14.6629 389.05 15.14 389.365 15.7156C389.685 16.286 389.847 16.9123 389.852 17.5946C389.847 18.4794 389.573 19.2709 389.029 19.9692C388.485 20.6674 387.734 21.2191 386.774 21.6242C385.82 22.024 384.727 22.2239 383.496 22.2239ZM383.496 19.6813C384.045 19.6813 384.525 19.5827 384.935 19.3855C385.346 19.183 385.666 18.9058 385.895 18.554C386.129 18.1969 386.247 17.7864 386.247 17.3227C386.247 16.8483 386.127 16.4299 385.887 16.0674C385.647 15.6997 385.322 15.4118 384.911 15.2039C384.501 14.9907 384.029 14.8841 383.496 14.8841C382.968 14.8841 382.497 14.9907 382.081 15.2039C381.665 15.4118 381.337 15.6997 381.097 16.0674C380.863 16.4299 380.746 16.8483 380.746 17.3227C380.746 17.7864 380.86 18.1969 381.089 18.554C381.319 18.9058 381.641 19.183 382.057 19.3855C382.473 19.5827 382.952 19.6813 383.496 19.6813ZM383.496 12.3656C383.954 12.3656 384.362 12.2723 384.719 12.0858C385.077 11.8992 385.356 11.6407 385.559 11.3102C385.761 10.9797 385.863 10.5986 385.863 10.1669C385.863 9.74045 385.761 9.36734 385.559 9.04752C385.356 8.72238 385.079 8.46919 384.727 8.28796C384.376 8.1014 383.965 8.00813 383.496 8.00813C383.032 8.00813 382.622 8.1014 382.265 8.28796C381.908 8.46919 381.628 8.72238 381.425 9.04752C381.228 9.36734 381.129 9.74045 381.129 10.1669C381.129 10.5986 381.231 10.9797 381.433 11.3102C381.636 11.6407 381.916 11.8992 382.273 12.0858C382.63 12.2723 383.038 12.3656 383.496 12.3656ZM401.236 18.9298V18.0663C401.236 17.4107 401.374 16.8083 401.652 16.2593C401.934 15.705 402.342 15.2626 402.875 14.9321C403.413 14.5963 404.069 14.4284 404.842 14.4284C405.625 14.4284 406.284 14.5936 406.817 14.9241C407.355 15.2546 407.76 15.697 408.032 16.2513C408.309 16.8004 408.448 17.4053 408.448 18.0663V18.9298C408.448 19.5854 408.309 20.1904 408.032 20.7447C407.755 21.2937 407.347 21.7335 406.809 22.064C406.27 22.3998 405.615 22.5677 404.842 22.5677C404.058 22.5677 403.4 22.3998 402.867 22.064C402.334 21.7335 401.929 21.2937 401.652 20.7447C401.374 20.1904 401.236 19.5854 401.236 18.9298ZM403.562 18.0663V18.9298C403.562 19.3082 403.653 19.6654 403.834 20.0012C404.021 20.337 404.357 20.5049 404.842 20.5049C405.327 20.5049 405.657 20.3396 405.833 20.0092C406.014 19.6787 406.105 19.3189 406.105 18.9298V18.0663C406.105 17.6772 406.02 17.3147 405.849 16.9789C405.679 16.6431 405.343 16.4752 404.842 16.4752C404.362 16.4752 404.029 16.6431 403.842 16.9789C403.656 17.3147 403.562 17.6772 403.562 18.0663ZM392.833 9.55922V8.69573C392.833 8.03478 392.974 7.42979 393.256 6.88078C393.539 6.32643 393.947 5.88402 394.48 5.55355C395.018 5.22308 395.668 5.05784 396.431 5.05784C397.219 5.05784 397.88 5.22308 398.413 5.55355C398.946 5.88402 399.352 6.32643 399.629 6.88078C399.906 7.42979 400.044 8.03478 400.044 8.69573V9.55922C400.044 10.2202 399.903 10.8252 399.621 11.3742C399.344 11.9232 398.936 12.3629 398.397 12.6934C397.864 13.0185 397.209 13.1811 396.431 13.1811C395.652 13.1811 394.994 13.0159 394.456 12.6854C393.923 12.3496 393.518 11.9099 393.24 11.3662C392.969 10.8172 392.833 10.2148 392.833 9.55922ZM395.175 8.69573V9.55922C395.175 9.94833 395.266 10.3081 395.447 10.6386C395.634 10.9691 395.962 11.1343 396.431 11.1343C396.921 11.1343 397.254 10.9691 397.43 10.6386C397.611 10.3081 397.702 9.94833 397.702 9.55922V8.69573C397.702 8.30662 397.617 7.94416 397.446 7.60836C397.275 7.27255 396.937 7.10465 396.431 7.10465C395.956 7.10465 395.628 7.27522 395.447 7.61635C395.266 7.95749 395.175 8.31728 395.175 8.69573ZM393.888 22L405.146 5.62551H407.24L395.983 22H393.888Z" fill="black"/>
<path opacity="0.2" d="M13 49H490" stroke="black" stroke-width="25" stroke-linecap="round"/>
<path d="M13 49H379" stroke="#FF7E36" stroke-width="25" stroke-linecap="round"/>
<circle opacity="0.5" cx="104" cy="50" r="6" fill="white"/>
<circle opacity="0.5" cx="202" cy="50" r="6" fill="white"/>
<circle opacity="0.5" cx="300" cy="50" r="6" fill="white"/>
<circle opacity="0.5" cx="398" cy="50" r="6" fill="white"/>
</svg>
