<svg width="24" height="24" viewBox="0 0 24 24" fill="none" xmlns="http://www.w3.org/2000/svg">
<path d="M4.70906 17.8706C5.69784 17.1144 6.80295 16.5183 8.02439 16.082C9.24582 15.6458 10.5254 15.4277 11.8632 15.4277C13.2009 15.4277 14.4805 15.6458 15.702 16.082C16.9234 16.5183 18.0285 17.1144 19.0173 17.8706C19.6959 17.0757 20.2242 16.1741 20.6023 15.166C20.9803 14.1578 21.1693 13.0818 21.1693 11.9379C21.1693 9.3593 20.263 7.16363 18.4502 5.35086C16.6374 3.5381 14.4418 2.63172 11.8632 2.63172C9.2846 2.63172 7.08892 3.5381 5.27616 5.35086C3.46339 7.16363 2.55701 9.3593 2.55701 11.9379C2.55701 13.0818 2.74604 14.1578 3.12411 15.166C3.50217 16.1741 4.03049 17.0757 4.70906 17.8706ZM11.8632 13.1012C10.7193 13.1012 9.75475 12.7086 8.96954 11.9233C8.18434 11.1381 7.79173 10.1736 7.79173 9.02971C7.79173 7.88583 8.18434 6.92128 8.96954 6.13607C9.75475 5.35086 10.7193 4.95826 11.8632 4.95826C13.0071 4.95826 13.9716 5.35086 14.7568 6.13607C15.542 6.92128 15.9346 7.88583 15.9346 9.02971C15.9346 10.1736 15.542 11.1381 14.7568 11.9233C13.9716 12.7086 13.0071 13.1012 11.8632 13.1012ZM11.8632 23.5706C10.254 23.5706 8.74174 23.2652 7.32642 22.6545C5.91111 22.0438 4.67998 21.215 3.63304 20.168C2.58609 19.1211 1.75726 17.89 1.14654 16.4746C0.535827 15.0593 0.230469 13.5471 0.230469 11.9379C0.230469 10.3287 0.535827 8.81644 1.14654 7.40113C1.75726 5.98582 2.58609 4.75469 3.63304 3.70774C4.67998 2.6608 5.91111 1.83197 7.32642 1.22125C8.74174 0.610534 10.254 0.305176 11.8632 0.305176C13.4724 0.305176 14.9846 0.610534 16.3999 1.22125C17.8153 1.83197 19.0464 2.6608 20.0933 3.70774C21.1403 4.75469 21.9691 5.98582 22.5798 7.40113C23.1905 8.81644 23.4959 10.3287 23.4959 11.9379C23.4959 13.5471 23.1905 15.0593 22.5798 16.4746C21.9691 17.89 21.1403 19.1211 20.0933 20.168C19.0464 21.215 17.8153 22.0438 16.3999 22.6545C14.9846 23.2652 13.4724 23.5706 11.8632 23.5706ZM11.8632 21.2441C12.8907 21.2441 13.8601 21.0938 14.7714 20.7933C15.6826 20.4928 16.5163 20.0614 17.2724 19.4991C16.5163 18.9369 15.6826 18.5055 14.7714 18.205C13.8601 17.9045 12.8907 17.7542 11.8632 17.7542C10.8356 17.7542 9.86623 17.9045 8.955 18.205C8.04377 18.5055 7.2101 18.9369 6.45397 19.4991C7.2101 20.0614 8.04377 20.4928 8.955 20.7933C9.86623 21.0938 10.8356 21.2441 11.8632 21.2441ZM11.8632 10.7746C12.3673 10.7746 12.7841 10.6098 13.1137 10.2802C13.4433 9.95063 13.6081 9.53379 13.6081 9.02971C13.6081 8.52563 13.4433 8.10879 13.1137 7.77919C12.7841 7.4496 12.3673 7.2848 11.8632 7.2848C11.3591 7.2848 10.9423 7.4496 10.6127 7.77919C10.2831 8.10879 10.1183 8.52563 10.1183 9.02971C10.1183 9.53379 10.2831 9.95063 10.6127 10.2802C10.9423 10.6098 11.3591 10.7746 11.8632 10.7746Z" fill="#FF7E36"/>
</svg>
