<svg width="21" height="22" viewBox="0 0 21 22" fill="none" xmlns="http://www.w3.org/2000/svg">
<path d="M8.86667 16.1333L17.0917 7.51667L15.4583 5.80556L8.86667 12.7111L5.54167 9.22778L3.90833 10.9389L8.86667 16.1333ZM2.33333 22C1.69167 22 1.14236 21.7606 0.685417 21.2819C0.228472 20.8032 0 20.2278 0 19.5556V2.44444C0 1.77222 0.228472 1.19676 0.685417 0.718056C1.14236 0.239352 1.69167 0 2.33333 0H18.6667C19.3083 0 19.8576 0.239352 20.3146 0.718056C20.7715 1.19676 21 1.77222 21 2.44444V19.5556C21 20.2278 20.7715 20.8032 20.3146 21.2819C19.8576 21.7606 19.3083 22 18.6667 22H2.33333ZM2.33333 19.5556H18.6667V2.44444H2.33333V19.5556Z" fill="#FF7E36"/>
</svg>
