<svg width="17" height="17" viewBox="0 0 17 17" fill="none" xmlns="http://www.w3.org/2000/svg">
<path opacity="0.5" d="M7.20371 12.3221L13.6705 5.85535L12.3863 4.57117L7.20371 9.75377L4.58948 7.13953L3.30529 8.42372L7.20371 12.3221ZM2.06697 16.7251C1.56247 16.7251 1.13059 16.5454 0.771321 16.1862C0.412055 15.8269 0.232422 15.395 0.232422 14.8905V2.04866C0.232422 1.54416 0.412055 1.11228 0.771321 0.75301C1.13059 0.393744 1.56247 0.214111 2.06697 0.214111H14.9088C15.4133 0.214111 15.8452 0.393744 16.2045 0.75301C16.5637 1.11228 16.7434 1.54416 16.7434 2.04866V14.8905C16.7434 15.395 16.5637 15.8269 16.2045 16.1862C15.8452 16.5454 15.4133 16.7251 14.9088 16.7251H2.06697ZM2.06697 14.8905H14.9088V2.04866H2.06697V14.8905Z" fill="black"/>
</svg>
