<svg width="24" height="22" viewBox="0 0 24 22" fill="none" xmlns="http://www.w3.org/2000/svg">
<path d="M11.8692 19.8C11.9418 19.8 12.0145 19.7817 12.0872 19.745C12.1599 19.7083 12.2144 19.6717 12.2508 19.635L21.1922 10.615C21.4103 10.395 21.5693 10.1475 21.6692 9.8725C21.7692 9.5975 21.8192 9.3225 21.8192 9.0475C21.8192 8.75417 21.7692 8.47458 21.6692 8.20875C21.5693 7.94292 21.4103 7.70917 21.1922 7.5075L16.5579 2.8325C16.358 2.6125 16.1263 2.45208 15.8628 2.35125C15.5993 2.25042 15.3221 2.2 15.0313 2.2C14.7587 2.2 14.4861 2.25042 14.2135 2.35125C13.9409 2.45208 13.6956 2.6125 13.4775 2.8325L13.1776 3.135L15.1949 5.1975C15.4675 5.45417 15.6674 5.7475 15.7946 6.0775C15.9219 6.4075 15.9855 6.75583 15.9855 7.1225C15.9855 7.8925 15.7265 8.53875 15.2085 9.06125C14.6906 9.58375 14.05 9.845 13.2867 9.845C12.9232 9.845 12.5734 9.78083 12.2372 9.6525C11.901 9.52417 11.6056 9.33167 11.3512 9.075L9.30668 7.04L4.53612 11.8525C4.4816 11.9075 4.44071 11.9671 4.41345 12.0312C4.38619 12.0954 4.37256 12.1642 4.37256 12.2375C4.37256 12.3842 4.42708 12.5171 4.53612 12.6362C4.64516 12.7554 4.77238 12.815 4.91776 12.815C4.99046 12.815 5.06315 12.7967 5.13585 12.76C5.20854 12.7233 5.26306 12.6867 5.29941 12.65L9.00681 8.91L10.5334 10.45L6.85325 14.19C6.79873 14.245 6.75784 14.3046 6.73058 14.3687C6.70332 14.4329 6.68969 14.5017 6.68969 14.575C6.68969 14.7217 6.74421 14.85 6.85325 14.96C6.96229 15.07 7.0895 15.125 7.23489 15.125C7.30759 15.125 7.38028 15.1067 7.45298 15.07C7.52567 15.0333 7.58019 14.9967 7.61654 14.96L11.3239 11.2475L12.8505 12.7875L9.17038 16.5275C9.11586 16.5642 9.07497 16.6192 9.0477 16.6925C9.02044 16.7658 9.00681 16.8392 9.00681 16.9125C9.00681 17.0592 9.06134 17.1875 9.17038 17.2975C9.27942 17.4075 9.40663 17.4625 9.55202 17.4625C9.62472 17.4625 9.69287 17.4487 9.75647 17.4212C9.82008 17.3937 9.87915 17.3525 9.93367 17.2975L13.6411 13.585L15.1677 15.125L11.4602 18.865C11.4057 18.92 11.3648 18.9796 11.3376 19.0438C11.3103 19.1079 11.2967 19.1767 11.2967 19.25C11.2967 19.3967 11.3557 19.525 11.4739 19.635C11.592 19.745 11.7238 19.8 11.8692 19.8ZM11.8419 22C11.1695 22 10.5743 21.7754 10.0563 21.3263C9.53839 20.8771 9.23398 20.3133 9.14312 19.635C8.52522 19.5433 8.00727 19.2867 7.58928 18.865C7.17129 18.4433 6.91686 17.9208 6.82599 17.2975C6.20809 17.2058 5.69468 16.9446 5.28578 16.5138C4.87687 16.0829 4.62699 15.565 4.53612 14.96C3.84552 14.8683 3.28214 14.5658 2.84598 14.0525C2.40981 13.5392 2.19173 12.9342 2.19173 12.2375C2.19173 11.8708 2.25988 11.5179 2.39618 11.1788C2.53249 10.8396 2.72785 10.5417 2.98228 10.285L9.30668 3.9325L12.8778 7.535C12.9141 7.59 12.9686 7.63125 13.0413 7.65875C13.114 7.68625 13.1867 7.7 13.2594 7.7C13.423 7.7 13.5593 7.64958 13.6683 7.54875C13.7774 7.44792 13.8319 7.315 13.8319 7.15C13.8319 7.07667 13.8183 7.00333 13.791 6.93C13.7637 6.85667 13.7229 6.80167 13.6683 6.765L9.7701 2.8325C9.5702 2.6125 9.33848 2.45208 9.07497 2.35125C8.81145 2.25042 8.5343 2.2 8.24353 2.2C7.97092 2.2 7.69832 2.25042 7.42571 2.35125C7.15311 2.45208 6.90777 2.6125 6.68969 2.8325L2.84598 6.7375C2.68242 6.9025 2.54612 7.095 2.43707 7.315C2.32803 7.535 2.25534 7.755 2.21899 7.975C2.18264 8.195 2.18264 8.41958 2.21899 8.64875C2.25534 8.87792 2.32803 9.09333 2.43707 9.295L0.855974 10.89C0.547024 10.4683 0.319855 10.0054 0.174466 9.50125C0.0290777 8.99708 -0.025443 8.48833 0.0109041 7.975C0.0472513 7.46167 0.174466 6.96208 0.392549 6.47625C0.610632 5.99042 0.910495 5.555 1.29214 5.17L5.13585 1.2925C5.57201 0.870833 6.05816 0.55 6.59427 0.33C7.13039 0.11 7.68014 0 8.24353 0C8.80691 0 9.35666 0.11 9.89278 0.33C10.4289 0.55 10.906 0.870833 11.3239 1.2925L11.6238 1.595L11.9237 1.2925C12.3598 0.870833 12.846 0.55 13.3821 0.33C13.9182 0.11 14.468 0 15.0313 0C15.5947 0 16.1445 0.11 16.6806 0.33C17.2167 0.55 17.6938 0.870833 18.1118 1.2925L22.7188 5.94C23.1368 6.36167 23.4548 6.8475 23.6729 7.3975C23.891 7.9475 24 8.50667 24 9.075C24 9.64333 23.891 10.1979 23.6729 10.7387C23.4548 11.2796 23.1368 11.7608 22.7188 12.1825L13.7774 21.175C13.5229 21.4317 13.2276 21.6333 12.8914 21.78C12.5552 21.9267 12.2054 22 11.8419 22Z" fill="#FF7E36"/>
</svg>
