<svg width="19" height="17" viewBox="0 0 19 17" fill="none" xmlns="http://www.w3.org/2000/svg">
<path opacity="0.5" d="M8.91167 15.2638C8.96623 15.2638 9.02079 15.25 9.07534 15.2225C9.1299 15.195 9.17082 15.1675 9.1981 15.1399L15.9086 8.37046C16.0723 8.20535 16.1916 8.0196 16.2666 7.81322C16.3416 7.60683 16.3791 7.40044 16.3791 7.19406C16.3791 6.97391 16.3416 6.76408 16.2666 6.56458C16.1916 6.36507 16.0723 6.18964 15.9086 6.03829L12.4306 2.52971C12.2806 2.36461 12.1067 2.24421 11.9089 2.16854C11.7111 2.09286 11.5031 2.05503 11.2849 2.05503C11.0803 2.05503 10.8757 2.09286 10.6711 2.16854C10.4665 2.24421 10.2824 2.36461 10.1187 2.52971L9.8937 2.75674L11.4076 4.30464C11.6122 4.49727 11.7623 4.71741 11.8577 4.96508C11.9532 5.21274 12.001 5.47417 12.001 5.74935C12.001 6.32723 11.8066 6.81224 11.4179 7.20438C11.0292 7.59651 10.5484 7.79258 9.97553 7.79258C9.70275 7.79258 9.44019 7.74442 9.18787 7.64811C8.93554 7.55179 8.71391 7.40732 8.52296 7.21469L6.98854 5.68743L3.40825 9.2992C3.36734 9.34048 3.33665 9.3852 3.31619 9.43335C3.29573 9.48151 3.2855 9.53311 3.2855 9.58814C3.2855 9.69822 3.32642 9.79797 3.40825 9.8874C3.49009 9.97684 3.58556 10.0216 3.69468 10.0216C3.74923 10.0216 3.80379 10.0078 3.85835 9.98028C3.9129 9.95276 3.95382 9.92524 3.9811 9.89772L6.7635 7.09086L7.90919 8.24663L5.14725 11.0535C5.10633 11.0948 5.07565 11.1395 5.05519 11.1876C5.03473 11.2358 5.0245 11.2874 5.0245 11.3424C5.0245 11.4525 5.06542 11.5488 5.14725 11.6314C5.22909 11.7139 5.32456 11.7552 5.43368 11.7552C5.48823 11.7552 5.54279 11.7414 5.59735 11.7139C5.6519 11.6864 5.69282 11.6589 5.7201 11.6314L8.5025 8.84515L9.64819 10.0009L6.88625 12.8078C6.84533 12.8353 6.81465 12.8766 6.79419 12.9316C6.77373 12.9866 6.7635 13.0417 6.7635 13.0967C6.7635 13.2068 6.80442 13.3031 6.88625 13.3857C6.96809 13.4682 7.06356 13.5095 7.17267 13.5095C7.22723 13.5095 7.27838 13.4992 7.32612 13.4785C7.37385 13.4579 7.41818 13.4269 7.4591 13.3857L10.2415 10.5994L11.3872 11.7552L8.60479 14.5621C8.56387 14.6033 8.53319 14.6481 8.51273 14.6962C8.49227 14.7444 8.48204 14.796 8.48204 14.851C8.48204 14.9611 8.52637 15.0574 8.61502 15.1399C8.70368 15.2225 8.80256 15.2638 8.91167 15.2638ZM8.89121 16.9149C8.38656 16.9149 7.93988 16.7463 7.55116 16.4092C7.16245 16.0721 6.93399 15.649 6.86579 15.1399C6.40206 15.0712 6.01334 14.8785 5.69964 14.5621C5.38594 14.2456 5.19499 13.8535 5.12679 13.3857C4.66306 13.3169 4.27775 13.1208 3.97087 12.7975C3.66399 12.4741 3.47645 12.0854 3.40825 11.6314C2.88996 11.5626 2.46715 11.3356 2.13981 10.9503C1.81247 10.565 1.64879 10.111 1.64879 9.58814C1.64879 9.31296 1.69994 9.0481 1.80224 8.79355C1.90453 8.53901 2.05115 8.31542 2.2421 8.1228L6.98854 3.35526L9.66865 6.05893C9.69593 6.10021 9.73685 6.13116 9.7914 6.1518C9.84596 6.17244 9.90052 6.18276 9.95507 6.18276C10.0778 6.18276 10.1801 6.14492 10.262 6.06925C10.3438 5.99357 10.3847 5.89382 10.3847 5.76999C10.3847 5.71495 10.3745 5.65991 10.354 5.60488C10.3336 5.54984 10.3029 5.50856 10.262 5.48105L7.33635 2.52971C7.18631 2.36461 7.01241 2.24421 6.81465 2.16854C6.61688 2.09286 6.40888 2.05503 6.19065 2.05503C5.98606 2.05503 5.78148 2.09286 5.57689 2.16854C5.3723 2.24421 5.18817 2.36461 5.0245 2.52971L2.13981 5.46041C2.01705 5.58424 1.91476 5.72871 1.83292 5.89382C1.75109 6.05893 1.69653 6.22404 1.66925 6.38915C1.64198 6.55426 1.64198 6.72281 1.66925 6.8948C1.69653 7.06678 1.75109 7.22845 1.83292 7.3798L0.646313 8.57685C0.414446 8.26039 0.243956 7.91297 0.134843 7.53459C0.025729 7.15622 -0.0151886 6.7744 0.0120898 6.38915C0.0393682 6.00389 0.134843 5.62896 0.298513 5.26434C0.462184 4.89972 0.687231 4.57294 0.973654 4.284L3.85835 1.37395C4.18569 1.05749 4.55054 0.816704 4.95289 0.651595C5.35525 0.486485 5.76784 0.403931 6.19065 0.403931C6.61347 0.403931 7.02605 0.486485 7.42841 0.651595C7.83077 0.816704 8.1888 1.05749 8.5025 1.37395L8.72754 1.60097L8.95259 1.37395C9.27993 1.05749 9.64478 0.816704 10.0471 0.651595C10.4495 0.486485 10.8621 0.403931 11.2849 0.403931C11.7077 0.403931 12.1203 0.486485 12.5227 0.651595C12.925 0.816704 13.283 1.05749 13.5967 1.37395L17.0543 4.86189C17.368 5.17835 17.6067 5.54296 17.7703 5.95574C17.934 6.36851 18.0158 6.78816 18.0158 7.21469C18.0158 7.64123 17.934 8.05744 17.7703 8.46334C17.6067 8.86923 17.368 9.23041 17.0543 9.54687L10.3438 16.2957C10.1528 16.4883 9.9312 16.6397 9.67888 16.7498C9.42655 16.8598 9.164 16.9149 8.89121 16.9149Z" fill="black"/>
</svg>
