<svg width="22" height="22" viewBox="0 0 22 22" fill="none" xmlns="http://www.w3.org/2000/svg">
<path d="M5.5 17.6C5.18833 17.6 4.92708 17.4946 4.71625 17.2838C4.50542 17.0729 4.4 16.8117 4.4 16.5V14.3H18.7V4.4H20.9C21.2117 4.4 21.4729 4.50542 21.6838 4.71625C21.8946 4.92708 22 5.18833 22 5.5V22L17.6 17.6H5.5ZM0 16.5V1.1C0 0.788333 0.105417 0.527083 0.31625 0.31625C0.527083 0.105417 0.788333 0 1.1 0H15.4C15.7117 0 15.9729 0.105417 16.1838 0.31625C16.3946 0.527083 16.5 0.788333 16.5 1.1V11C16.5 11.3117 16.3946 11.5729 16.1838 11.7837C15.9729 11.9946 15.7117 12.1 15.4 12.1H4.4L0 16.5ZM14.3 9.9V2.2H2.2V9.9H14.3Z" fill="#FF7E36"/>
</svg>
