<svg width="18" height="18" viewBox="0 0 18 18" fill="none" xmlns="http://www.w3.org/2000/svg">
<path opacity="0.5" d="M4.88262 14.1941C4.64871 14.1941 4.45265 14.115 4.29442 13.9568C4.13619 13.7985 4.05707 13.6025 4.05707 13.3686V11.7175H14.7892V4.28754H16.4403C16.6742 4.28754 16.8703 4.36666 17.0285 4.52489C17.1867 4.68312 17.2658 4.87918 17.2658 5.11309V17.4963L13.9636 14.1941H4.88262ZM0.754883 13.3686V1.8109C0.754883 1.57699 0.833998 1.38093 0.992228 1.2227C1.15046 1.06447 1.34652 0.985352 1.58043 0.985352H12.3125C12.5464 0.985352 12.7425 1.06447 12.9007 1.2227C13.059 1.38093 13.1381 1.57699 13.1381 1.8109V9.24082C13.1381 9.47473 13.059 9.6708 12.9007 9.82903C12.7425 9.98726 12.5464 10.0664 12.3125 10.0664H4.05707L0.754883 13.3686ZM11.487 8.41528V2.63645H2.40598V8.41528H11.487Z" fill="black"/>
</svg>
