<svg width="17" height="17" viewBox="0 0 17 17" fill="none" xmlns="http://www.w3.org/2000/svg">
<path d="M7.65 12.75H9.35V7.65H7.65V12.75ZM8.5 5.95C8.74083 5.95 8.94271 5.86854 9.10563 5.70563C9.26854 5.54271 9.35 5.34083 9.35 5.1C9.35 4.85917 9.26854 4.65729 9.10563 4.49438C8.94271 4.33146 8.74083 4.25 8.5 4.25C8.25917 4.25 8.05729 4.33146 7.89438 4.49438C7.73146 4.65729 7.65 4.85917 7.65 5.1C7.65 5.34083 7.73146 5.54271 7.89438 5.70563C8.05729 5.86854 8.25917 5.95 8.5 5.95ZM8.5 17C7.32417 17 6.21917 16.7769 5.185 16.3306C4.15083 15.8844 3.25125 15.2788 2.48625 14.5138C1.72125 13.7488 1.11563 12.8492 0.669375 11.815C0.223125 10.7808 0 9.67583 0 8.5C0 7.32417 0.223125 6.21917 0.669375 5.185C1.11563 4.15083 1.72125 3.25125 2.48625 2.48625C3.25125 1.72125 4.15083 1.11563 5.185 0.669375C6.21917 0.223125 7.32417 0 8.5 0C9.67583 0 10.7808 0.223125 11.815 0.669375C12.8492 1.11563 13.7488 1.72125 14.5138 2.48625C15.2788 3.25125 15.8844 4.15083 16.3306 5.185C16.7769 6.21917 17 7.32417 17 8.5C17 9.67583 16.7769 10.7808 16.3306 11.815C15.8844 12.8492 15.2788 13.7488 14.5138 14.5138C13.7488 15.2788 12.8492 15.8844 11.815 16.3306C10.7808 16.7769 9.67583 17 8.5 17ZM8.5 15.3C10.3983 15.3 12.0063 14.6413 13.3238 13.3238C14.6413 12.0063 15.3 10.3983 15.3 8.5C15.3 6.60167 14.6413 4.99375 13.3238 3.67625C12.0063 2.35875 10.3983 1.7 8.5 1.7C6.60167 1.7 4.99375 2.35875 3.67625 3.67625C2.35875 4.99375 1.7 6.60167 1.7 8.5C1.7 10.3983 2.35875 12.0063 3.67625 13.3238C4.99375 14.6413 6.60167 15.3 8.5 15.3Z" fill="black"/>
</svg>
