<svg width="25" height="24" viewBox="0 0 25 24" fill="none" xmlns="http://www.w3.org/2000/svg">
<path d="M11.2224 17.7542H13.5489V10.7746H11.2224V17.7542ZM12.3856 8.44807C12.7152 8.44807 12.9915 8.33659 13.2145 8.11363C13.4374 7.89067 13.5489 7.6144 13.5489 7.2848C13.5489 6.95521 13.4374 6.67893 13.2145 6.45597C12.9915 6.23301 12.7152 6.12153 12.3856 6.12153C12.056 6.12153 11.7798 6.23301 11.5568 6.45597C11.3338 6.67893 11.2224 6.95521 11.2224 7.2848C11.2224 7.6144 11.3338 7.89067 11.5568 8.11363C11.7798 8.33659 12.056 8.44807 12.3856 8.44807ZM12.3856 23.5706C10.7764 23.5706 9.2642 23.2652 7.84888 22.6545C6.43357 22.0438 5.20244 21.215 4.1555 20.168C3.10855 19.1211 2.27972 17.89 1.66901 16.4746C1.05829 15.0593 0.75293 13.5471 0.75293 11.9379C0.75293 10.3287 1.05829 8.81644 1.66901 7.40113C2.27972 5.98582 3.10855 4.75469 4.1555 3.70774C5.20244 2.6608 6.43357 1.83197 7.84888 1.22125C9.2642 0.610534 10.7764 0.305176 12.3856 0.305176C13.9948 0.305176 15.5071 0.610534 16.9224 1.22125C18.3377 1.83197 19.5688 2.6608 20.6158 3.70774C21.6627 4.75469 22.4916 5.98582 23.1023 7.40113C23.713 8.81644 24.0184 10.3287 24.0184 11.9379C24.0184 13.5471 23.713 15.0593 23.1023 16.4746C22.4916 17.89 21.6627 19.1211 20.6158 20.168C19.5688 21.215 18.3377 22.0438 16.9224 22.6545C15.5071 23.2652 13.9948 23.5706 12.3856 23.5706ZM12.3856 21.2441C14.9836 21.2441 17.1841 20.3425 18.9872 18.5395C20.7903 16.7364 21.6918 14.5359 21.6918 11.9379C21.6918 9.33992 20.7903 7.13939 18.9872 5.33632C17.1841 3.53325 14.9836 2.63172 12.3856 2.63172C9.78767 2.63172 7.58715 3.53325 5.78408 5.33632C3.98101 7.13939 3.07947 9.33992 3.07947 11.9379C3.07947 14.5359 3.98101 16.7364 5.78408 18.5395C7.58715 20.3425 9.78767 21.2441 12.3856 21.2441Z" fill="#FF7E36"/>
</svg>
