<svg width="20" height="24" viewBox="0 0 20 24" fill="none" xmlns="http://www.w3.org/2000/svg">
<path d="M15.5556 24C14.4074 24 13.4676 23.7019 12.7361 23.1058C12.0046 22.5096 11.4444 21.6346 11.0556 20.4808C10.7407 19.5192 10.4398 18.8462 10.1528 18.4615C9.86574 18.0769 9.2037 17.4615 8.16667 16.6154C7.01852 15.6538 6.11111 14.5673 5.44444 13.3558C4.77778 12.1442 4.44444 10.6923 4.44444 9C4.44444 6.71154 5.18982 4.79327 6.68056 3.24519C8.1713 1.69712 10.0185 0.923077 12.2222 0.923077C14.4259 0.923077 16.2731 1.69712 17.7639 3.24519C19.2546 4.79327 20 6.71154 20 9H17.7778C17.7778 7.36538 17.2454 5.99519 16.1806 4.88942C15.1157 3.78365 13.7963 3.23077 12.2222 3.23077C10.6481 3.23077 9.3287 3.78365 8.26389 4.88942C7.19907 5.99519 6.66667 7.36538 6.66667 9C6.66667 10.3077 6.91667 11.4231 7.41667 12.3462C7.91667 13.2692 8.62963 14.0962 9.55556 14.8269C10.5185 15.5577 11.2685 16.2692 11.8056 16.9615C12.3426 17.6538 12.7407 18.4038 13 19.2115C13.2593 20.0577 13.5694 20.6827 13.9306 21.0865C14.2917 21.4904 14.8333 21.6923 15.5556 21.6923C16.1667 21.6923 16.6898 21.4663 17.125 21.0144C17.5602 20.5625 17.7778 20.0192 17.7778 19.3846H20C20 20.6538 19.5648 21.7404 18.6944 22.6442C17.8241 23.5481 16.7778 24 15.5556 24ZM3.55556 17.9423C2.46296 16.7885 1.59722 15.4471 0.958333 13.9183C0.319444 12.3894 0 10.75 0 9C0 7.23077 0.319444 5.57692 0.958333 4.03846C1.59722 2.5 2.46296 1.15385 3.55556 0L5.16667 1.61538C4.24074 2.57692 3.51852 3.6875 3 4.94712C2.48148 6.20673 2.22222 7.55769 2.22222 9C2.22222 10.4231 2.48148 11.7596 3 13.0096C3.51852 14.2596 4.24074 15.3654 5.16667 16.3269L3.55556 17.9423ZM12.2222 11.8846C11.4444 11.8846 10.787 11.601 10.25 11.0337C9.71296 10.4663 9.44444 9.78846 9.44444 9C9.44444 8.19231 9.71296 7.50962 10.25 6.95192C10.787 6.39423 11.4444 6.11538 12.2222 6.11538C13 6.11538 13.6574 6.39423 14.1944 6.95192C14.7315 7.50962 15 8.19231 15 9C15 9.78846 14.7315 10.4663 14.1944 11.0337C13.6574 11.601 13 11.8846 12.2222 11.8846Z" fill="#FF7E36"/>
</svg>
