<svg width="16" height="19" viewBox="0 0 16 19" fill="none" xmlns="http://www.w3.org/2000/svg">
<path opacity="0.5" d="M12.1793 18.1126C11.3176 18.1126 10.6123 17.8889 10.0633 17.4415C9.51433 16.9941 9.09391 16.3374 8.80205 15.4715C8.56578 14.7498 8.33994 14.2447 8.12452 13.956C7.9091 13.6674 7.41224 13.2055 6.63395 12.5705C5.77226 11.8489 5.09126 11.0334 4.59092 10.1242C4.09059 9.21492 3.84043 8.12526 3.84043 6.85519C3.84043 5.1377 4.39983 3.69804 5.51862 2.53622C6.63742 1.37439 8.02376 0.793475 9.67763 0.793475C11.3315 0.793475 12.7178 1.37439 13.8366 2.53622C14.9554 3.69804 15.5148 5.1377 15.5148 6.85519H13.8471C13.8471 5.62841 13.4475 4.60008 12.6483 3.77021C11.8492 2.94033 10.859 2.52539 9.67763 2.52539C8.49629 2.52539 7.50605 2.94033 6.70691 3.77021C5.90777 4.60008 5.5082 5.62841 5.5082 6.85519C5.5082 7.83661 5.69582 8.6737 6.07107 9.36647C6.44632 10.0592 6.9814 10.6798 7.6763 11.2283C8.399 11.7767 8.96188 12.3107 9.36492 12.8303C9.76797 13.3499 10.0668 13.9127 10.2614 14.5189C10.4559 15.154 10.6887 15.623 10.9597 15.9261C11.2307 16.2292 11.6373 16.3807 12.1793 16.3807C12.6379 16.3807 13.0305 16.2111 13.3572 15.872C13.6838 15.5328 13.8471 15.1251 13.8471 14.6488H15.5148C15.5148 15.6014 15.1882 16.4168 14.535 17.0951C13.8818 17.7735 13.0966 18.1126 12.1793 18.1126ZM3.17332 13.5664C2.35333 12.7004 1.70359 11.6937 1.22411 10.5463C0.744625 9.39894 0.504883 8.16856 0.504883 6.85519C0.504883 5.52738 0.744625 4.28617 1.22411 3.13156C1.70359 1.97695 2.35333 0.966667 3.17332 0.100708L4.38245 1.31305C3.68755 2.03468 3.14552 2.86817 2.75638 3.81351C2.36723 4.75884 2.17266 5.77274 2.17266 6.85519C2.17266 7.9232 2.36723 8.92627 2.75638 9.86439C3.14552 10.8025 3.68755 11.6324 4.38245 12.354L3.17332 13.5664ZM9.67763 9.02008C9.09391 9.02008 8.60053 8.8072 8.19748 8.38144C7.79444 7.95567 7.59291 7.44692 7.59291 6.85519C7.59291 6.24901 7.79444 5.73666 8.19748 5.31811C8.60053 4.89956 9.09391 4.69029 9.67763 4.69029C10.2614 4.69029 10.7547 4.89956 11.1578 5.31811C11.5608 5.73666 11.7623 6.24901 11.7623 6.85519C11.7623 7.44692 11.5608 7.95567 11.1578 8.38144C10.7547 8.8072 10.2614 9.02008 9.67763 9.02008Z" fill="black"/>
</svg>
