<svg width="19" height="20" viewBox="0 0 19 20" fill="none" xmlns="http://www.w3.org/2000/svg">
<path d="M3.75639 11.9614H6.05479L11.5897 6.47343C11.6835 6.37962 11.7304 6.26235 11.7304 6.12163C11.7304 5.98091 11.6835 5.86365 11.5897 5.76984L9.948 4.12812C9.85419 4.03431 9.73692 3.98741 9.5962 3.98741C9.45548 3.98741 9.33822 4.03431 9.24441 4.12812L3.75639 9.66304V11.9614ZM7.97794 11.9614H15.0139V10.0852H9.85419L7.97794 11.9614ZM0.00390625 19.4664V2.58022C0.00390625 2.06426 0.187622 1.62256 0.555053 1.25513C0.922484 0.887695 1.36418 0.703979 1.88015 0.703979H16.8901C17.4061 0.703979 17.8478 0.887695 18.2152 1.25513C18.5826 1.62256 18.7663 2.06426 18.7663 2.58022V13.8377C18.7663 14.3537 18.5826 14.7954 18.2152 15.1628C17.8478 15.5302 17.4061 15.7139 16.8901 15.7139H3.75639L0.00390625 19.4664ZM2.95899 13.8377H16.8901V2.58022H1.88015V14.8931L2.95899 13.8377Z" fill="#FF7E36"/>
</svg>
