<svg width="16" height="17" viewBox="0 0 16 17" fill="none" xmlns="http://www.w3.org/2000/svg">
<path opacity="0.5" d="M7.17597 14.4341V8.77911L2.17266 5.91034V11.5653L7.17597 14.4341ZM8.84374 14.4341L13.8471 11.5653V5.91034L8.84374 8.77911V14.4341ZM7.17597 16.3329L1.33877 13.01C1.07471 12.8587 0.869708 12.6592 0.723778 12.4115C0.577848 12.1639 0.504883 11.8887 0.504883 11.586V5.02287C0.504883 4.72017 0.577848 4.44499 0.723778 4.19732C0.869708 3.94966 1.07471 3.75015 1.33877 3.5988L7.17597 0.275976C7.44004 0.124625 7.718 0.0489502 8.00986 0.0489502C8.30172 0.0489502 8.57968 0.124625 8.84374 0.275976L14.6809 3.5988C14.945 3.75015 15.15 3.94966 15.2959 4.19732C15.4419 4.44499 15.5148 4.72017 15.5148 5.02287V11.586C15.5148 11.8887 15.4419 12.1639 15.2959 12.4115C15.15 12.6592 14.945 12.8587 14.6809 13.01L8.84374 16.3329C8.57968 16.4842 8.30172 16.5599 8.00986 16.5599C7.718 16.5599 7.44004 16.4842 7.17597 16.3329ZM11.3454 5.43565L12.9506 4.52754L8.00986 1.70004L6.38378 2.62879L11.3454 5.43565ZM8.00986 7.35504L9.63594 6.4263L4.69516 3.5988L3.06908 4.52754L8.00986 7.35504Z" fill="black"/>
</svg>
