<svg width="20" height="22" viewBox="0 0 20 22" fill="none" xmlns="http://www.w3.org/2000/svg">
<path d="M8.88889 19.1675V11.6325L2.22222 7.81V15.345L8.88889 19.1675ZM11.1111 19.1675L17.7778 15.345V7.81L11.1111 11.6325V19.1675ZM8.88889 21.6975L1.11111 17.27C0.759259 17.0683 0.486111 16.8025 0.291667 16.4725C0.0972222 16.1425 0 15.7758 0 15.3725V6.6275C0 6.22417 0.0972222 5.8575 0.291667 5.5275C0.486111 5.1975 0.759259 4.93167 1.11111 4.73L8.88889 0.3025C9.24074 0.100833 9.61111 0 10 0C10.3889 0 10.7593 0.100833 11.1111 0.3025L18.8889 4.73C19.2407 4.93167 19.5139 5.1975 19.7083 5.5275C19.9028 5.8575 20 6.22417 20 6.6275V15.3725C20 15.7758 19.9028 16.1425 19.7083 16.4725C19.5139 16.8025 19.2407 17.0683 18.8889 17.27L11.1111 21.6975C10.7593 21.8992 10.3889 22 10 22C9.61111 22 9.24074 21.8992 8.88889 21.6975ZM14.4444 7.1775L16.5833 5.9675L10 2.2L7.83333 3.4375L14.4444 7.1775ZM10 9.735L12.1667 8.4975L5.58333 4.73L3.41667 5.9675L10 9.735Z" fill="#FF7E36"/>
</svg>
