<svg width="24" height="24" viewBox="0 0 24 24" fill="none" xmlns="http://www.w3.org/2000/svg">
<path d="M4.05572 23.9806V18.9786C2.93067 17.9704 2.05727 16.7926 1.43554 15.4451C0.813799 14.0977 0.50293 12.6775 0.50293 11.1847C0.50293 8.27647 1.53916 5.80452 3.61162 3.7688C5.68408 1.73307 8.20064 0.71521 11.1613 0.71521C13.6285 0.71521 15.8145 1.42771 17.7192 2.85272C19.6238 4.27773 20.8624 6.13411 21.4348 8.42188L22.9743 14.3836C23.073 14.752 23.0039 15.0865 22.7671 15.387C22.5302 15.6875 22.2144 15.8377 21.8197 15.8377H19.4511V19.3275C19.4511 19.9673 19.2192 20.5151 18.7554 20.9707C18.2915 21.4263 17.734 21.6541 17.0826 21.6541H14.7141V23.9806H12.3456V19.3275H17.0826V13.5112H20.2801L19.1551 9.00352C18.7011 7.23922 17.734 5.80452 16.2536 4.69941C14.7733 3.59431 13.0759 3.04175 11.1613 3.04175C8.87172 3.04175 6.91769 3.82696 5.29919 5.39738C3.6807 6.96779 2.87146 8.8775 2.87146 11.1265C2.87146 12.2898 3.11324 13.3949 3.59682 14.4418C4.08039 15.4888 4.76628 16.4194 5.65447 17.2337L6.42424 17.9316V23.9806H4.05572ZM9.97703 15.8377H12.3456L12.5232 14.3836C12.6811 14.3255 12.8242 14.2576 12.9525 14.1801C13.0808 14.1025 13.1943 14.0153 13.293 13.9183L14.6549 14.5L15.8391 12.5224L14.6549 11.65C14.6943 11.4949 14.7141 11.3398 14.7141 11.1847C14.7141 11.0295 14.6943 10.8744 14.6549 10.7193L15.8391 9.84689L14.6549 7.86933L13.293 8.45096C13.1943 8.35402 13.0808 8.26678 12.9525 8.18923C12.8242 8.11168 12.6811 8.04382 12.5232 7.98565L12.3456 6.53157H9.97703L9.79939 7.98565C9.64149 8.04382 9.49839 8.11168 9.3701 8.18923C9.2418 8.26678 9.12831 8.35402 9.02962 8.45096L7.66772 7.86933L6.48346 9.84689L7.66772 10.7193C7.62824 10.8744 7.60851 11.0295 7.60851 11.1847C7.60851 11.3398 7.62824 11.4949 7.66772 11.65L6.48346 12.5224L7.66772 14.5L9.02962 13.9183C9.12831 14.0153 9.2418 14.1025 9.3701 14.1801C9.49839 14.2576 9.64149 14.3255 9.79939 14.3836L9.97703 15.8377ZM11.1613 12.9296C10.6679 12.9296 10.2484 12.7599 9.90302 12.4206C9.55761 12.0813 9.3849 11.6693 9.3849 11.1847C9.3849 10.7 9.55761 10.288 9.90302 9.94867C10.2484 9.60939 10.6679 9.43974 11.1613 9.43974C11.6547 9.43974 12.0742 9.60939 12.4196 9.94867C12.765 10.288 12.9377 10.7 12.9377 11.1847C12.9377 11.6693 12.765 12.0813 12.4196 12.4206C12.0742 12.7599 11.6547 12.9296 11.1613 12.9296Z" fill="#FF7E36"/>
</svg>
