<svg width="118" height="18" viewBox="0 0 118 18" fill="none" xmlns="http://www.w3.org/2000/svg">
<path d="M3.62368 18L5.16316 11.3447L0 6.86842L6.82105 6.27632L9.47368 0L12.1263 6.27632L18.9474 6.86842L13.7842 11.3447L15.3237 18L9.47368 14.4711L3.62368 18Z" fill="#FF7E36"/>
<path d="M28.2555 18L29.795 11.3447L24.6318 6.86842L31.4529 6.27632L34.1055 0L36.7582 6.27632L43.5792 6.86842L38.416 11.3447L39.9555 18L34.1055 14.4711L28.2555 18Z" fill="#FF7E36"/>
<path d="M52.8874 18L54.4268 11.3447L49.2637 6.86842L56.0847 6.27632L58.7374 0L61.39 6.27632L68.211 6.86842L63.0479 11.3447L64.5874 18L58.7374 14.4711L52.8874 18Z" fill="#FF7E36"/>
<path opacity="0.2" d="M80.384 14.0447L83.3682 12.2447L86.3524 14.0684L85.5708 10.6579L88.1998 8.38421L84.7419 8.07632L83.3682 4.85526L81.9945 8.05263L78.5366 8.36053L81.1656 10.6579L80.384 14.0447ZM77.5182 18L79.0577 11.3447L73.8945 6.86842L80.7156 6.27632L83.3682 0L86.0208 6.27632L92.8419 6.86842L87.6787 11.3447L89.2182 18L83.3682 14.4711L77.5182 18Z" fill="black"/>
<path opacity="0.2" d="M105.015 14.0447L107.999 12.2447L110.983 14.0684L110.202 10.6579L112.831 8.38421L109.373 8.07632L107.999 4.85526L106.625 8.05263L103.167 8.36053L105.796 10.6579L105.015 14.0447ZM102.149 18L103.689 11.3447L98.5254 6.86842L105.346 6.27632L107.999 0L110.652 6.27632L117.473 6.86842L112.31 11.3447L113.849 18L107.999 14.4711L102.149 18Z" fill="black"/>
</svg>
